<svg xmlns="http://www.w3.org/2000/svg" xmlns:dc="http://purl.org/dc/elements/1.1/" xmlns:ns2="http://creativecommons.org/ns#" xmlns:rdf="http://www.w3.org/1999/02/22-rdf-syntax-ns#" xmlns:xlink="http://www.w3.org/1999/xlink" width="183.0" height="206.0" viewBox="0.0 0.0 182.5 206.0">
<g id="graph0" class="graph" transform="scale(1.0 1.0) rotate(0) translate(4 202)">
<title>G</title>
<polygon fill="white" stroke="transparent" points="-4,4 -4,-202 178.5,-202 178.5,4 -4,4" />
<g id="clust2" class="cluster">
<title>cluster_legend</title>
</g>

<g id="node1" class="node">
<title>node0</title>
<text text-anchor="start" x="34" y="-148.9" font-family="Helvetica,sans-Serif" font-size="12.00" fill="#444443">feature1@0.35</text>
</g>

<g id="node2" class="node">
<title>leaf1</title>
<polygon fill="none" stroke="#444443" stroke-width="0" points="67,-83 0,-83 0,0 67,0 67,-83" />
<svg height="75px" version="1.1" viewBox="0 0 78.519993 99.410767" width="59px" preserveAspectRatio="xMinYMin meet" x="4.5" y="-78.5">
 <metadata>
  <rdf:RDF>
   <ns2:Work>
    <dc:type rdf:resource="http://purl.org/dc/dcmitype/StillImage" />
    <dc:date>2021-08-23T14:07:19.175554</dc:date>
    <dc:format>image/svg+xml</dc:format>
    <dc:creator>
     <ns2:Agent>
      <dc:title>Matplotlib v3.3.2, https://matplotlib.org/</dc:title>
     </ns2:Agent>
    </dc:creator>
   </ns2:Work>
  </rdf:RDF>
 </metadata>
 <defs>
  <style type="text/css">*{stroke-linecap:butt;stroke-linejoin:round;}</style>
 </defs>
 <g id="figure_1">
  <g id="patch_1">
   <path d="M 0 99.410767  L 78.519993 99.410767  L 78.519993 0  L 0 0  z " style="fill:#ffffff;" />
  </g>
  <g id="axes_1">
   <g id="patch_2">
    <path d="M 78.519993 39.259998  C 78.519993 34.278604 77.571917 29.342423 75.726477 24.715476  C 73.881036 20.088529 71.171729 15.854808 67.74347 12.240762  C 64.31521 8.626717 60.23023 5.697951 55.707022 3.611116  C 51.183814 1.524281 46.304487 0.317259 41.330022 0.054609  C 36.355557 -0.208041 31.376253 0.478449 26.658439 2.077362  C 21.940625 3.676275 17.569942 6.158585 13.780164 9.391521  C 9.990387 12.624457 6.85031 16.549333 4.527886 20.956218  C 2.205463 25.363103 0.742851 30.172001 0.218282 35.125699  C -0.306287 40.079396 0.116709 45.08797 1.464645 49.883526  C 2.812582 54.679082 5.060989 59.174568 8.089608 63.129534  C 11.118227 67.0845 14.872079 70.427153 19.150382 72.978705  C 23.428685 75.530256 28.153776 77.244388 33.072924 78.029417  C 37.992072 78.814445 43.015982 78.65612 47.875939 77.56291  C 52.735896 76.4697 57.343679 74.46145 61.452831 71.645574  C 65.561983 68.829699 69.097913 65.257313 71.871494 61.119495  C 74.645074 56.981677 76.605958 52.353538 77.649262 47.482624  L 39.259993 39.259998  L 78.519993 39.259998  z " style="fill:#440154;stroke:#444443;stroke-linejoin:miter;stroke-width:0.5;" />
   </g>
   <g id="patch_3">
    <path d="M 77.649262 47.482624  C 77.649262 47.482624 77.649262 47.482624 77.649262 47.482624  L 39.259993 39.259998  L 77.649262 47.482624  z " style="fill:#21918c;stroke:#444443;stroke-linejoin:miter;stroke-width:0.5;" />
   </g>
   <g id="patch_4">
    <path d="M 77.649262 47.482624  C 77.681392 47.332619 77.712642 47.182427 77.743011 47.032056  C 77.77338 46.881685 77.802868 46.731137 77.831472 46.580421  L 39.259993 39.259998  L 77.649262 47.482624  z " style="fill:#fde725;stroke:#444443;stroke-linejoin:miter;stroke-width:0.5;" />
   </g>
   <g id="patch_5">
    <path d="M 77.831472 46.580421  C 77.888681 46.278985 77.942355 45.976888 77.992481 45.674194  C 78.042608 45.3715 78.089185 45.068228 78.132202 44.764442  L 39.259993 39.259998  L 77.831472 46.580421  z " style="fill:#5ec962;stroke:#444443;stroke-linejoin:miter;stroke-width:0.5;" />
   </g>
   <g id="patch_6">
    <path d="M 78.132202 44.764442  C 78.261266 43.853 78.358233 42.937301 78.422925 42.019042  C 78.487617 41.100783 78.519993 40.180534 78.519993 39.259999  L 39.259993 39.259998  L 78.132202 44.764442  z " style="fill:#ffbaab;stroke:#444443;stroke-linejoin:miter;stroke-width:0.5;" />
   </g>
   <g id="text_1">
    
    <g style="fill:#444443;" transform="translate(26.622024 88.10283)scale(0.09 -0.09)">
     <defs>
      <path d="M 6.59375 0  L 6.59375 51.859375  L 14.5 51.859375  L 14.5 44.484375  Q 20.21875 53.03125 31 53.03125  Q 35.6875 53.03125 39.625 51.34375  Q 43.5625 49.65625 45.515625 46.921875  Q 47.46875 44.1875 48.25 40.4375  Q 48.734375 37.984375 48.734375 31.890625  L 48.734375 0  L 39.9375 0  L 39.9375 31.546875  Q 39.9375 36.921875 38.90625 39.578125  Q 37.890625 42.234375 35.28125 43.8125  Q 32.671875 45.40625 29.15625 45.40625  Q 23.53125 45.40625 19.453125 41.84375  Q 15.375 38.28125 15.375 28.328125  L 15.375 0  z " id="ArialMT-110" />
      <path d="M 52.828125 42.09375  L 5.5625 42.09375  L 5.5625 50.296875  L 52.828125 50.296875  z M 52.828125 20.359375  L 5.5625 20.359375  L 5.5625 28.5625  L 52.828125 28.5625  z " id="ArialMT-61" />
      <path d="M 50.34375 8.453125  L 50.34375 0  L 3.03125 0  Q 2.9375 3.171875 4.046875 6.109375  Q 5.859375 10.9375 9.828125 15.625  Q 13.8125 20.3125 21.34375 26.46875  Q 33.015625 36.03125 37.109375 41.625  Q 41.21875 47.21875 41.21875 52.203125  Q 41.21875 57.421875 37.46875 61  Q 33.734375 64.59375 27.734375 64.59375  Q 21.390625 64.59375 17.578125 60.78125  Q 13.765625 56.984375 13.71875 50.25  L 4.6875 51.171875  Q 5.609375 61.28125 11.65625 66.578125  Q 17.71875 71.875 27.9375 71.875  Q 38.234375 71.875 44.234375 66.15625  Q 50.25 60.453125 50.25 52  Q 50.25 47.703125 48.484375 43.546875  Q 46.734375 39.40625 42.65625 34.8125  Q 38.578125 30.21875 29.109375 22.21875  Q 21.1875 15.578125 18.9375 13.203125  Q 16.703125 10.84375 15.234375 8.453125  z " id="ArialMT-50" />
      <path d="M 49.75 54.046875  L 41.015625 53.375  Q 39.84375 58.546875 37.703125 60.890625  Q 34.125 64.65625 28.90625 64.65625  Q 24.703125 64.65625 21.53125 62.3125  Q 17.390625 59.28125 14.984375 53.46875  Q 12.59375 47.65625 12.5 36.921875  Q 15.671875 41.75 20.265625 44.09375  Q 24.859375 46.4375 29.890625 46.4375  Q 38.671875 46.4375 44.84375 39.96875  Q 51.03125 33.5 51.03125 23.25  Q 51.03125 16.5 48.125 10.71875  Q 45.21875 4.9375 40.140625 1.859375  Q 35.0625 -1.21875 28.609375 -1.21875  Q 17.625 -1.21875 10.6875 6.859375  Q 3.765625 14.9375 3.765625 33.5  Q 3.765625 54.25 11.421875 63.671875  Q 18.109375 71.875 29.4375 71.875  Q 37.890625 71.875 43.28125 67.140625  Q 48.6875 62.40625 49.75 54.046875  z M 13.875 23.1875  Q 13.875 18.65625 15.796875 14.5  Q 17.71875 10.359375 21.1875 8.171875  Q 24.65625 6 28.46875 6  Q 34.03125 6 38.03125 10.484375  Q 42.046875 14.984375 42.046875 22.703125  Q 42.046875 30.125 38.078125 34.390625  Q 34.125 38.671875 28.125 38.671875  Q 22.171875 38.671875 18.015625 34.390625  Q 13.875 30.125 13.875 23.1875  z " id="ArialMT-54" />
      <path d="M 17.671875 38.8125  Q 12.203125 40.828125 9.5625 44.53125  Q 6.9375 48.25 6.9375 53.421875  Q 6.9375 61.234375 12.546875 66.546875  Q 18.171875 71.875 27.484375 71.875  Q 36.859375 71.875 42.578125 66.421875  Q 48.296875 60.984375 48.296875 53.171875  Q 48.296875 48.1875 45.671875 44.5  Q 43.0625 40.828125 37.75 38.8125  Q 44.34375 36.671875 47.78125 31.875  Q 51.21875 27.09375 51.21875 20.453125  Q 51.21875 11.28125 44.71875 5.03125  Q 38.234375 -1.21875 27.640625 -1.21875  Q 17.046875 -1.21875 10.546875 5.046875  Q 4.046875 11.328125 4.046875 20.703125  Q 4.046875 27.6875 7.59375 32.390625  Q 11.140625 37.109375 17.671875 38.8125  z M 15.921875 53.71875  Q 15.921875 48.640625 19.1875 45.40625  Q 22.46875 42.1875 27.6875 42.1875  Q 32.765625 42.1875 36.015625 45.375  Q 39.265625 48.578125 39.265625 53.21875  Q 39.265625 58.0625 35.90625 61.359375  Q 32.5625 64.65625 27.59375 64.65625  Q 22.5625 64.65625 19.234375 61.421875  Q 15.921875 58.203125 15.921875 53.71875  z M 13.09375 20.65625  Q 13.09375 16.890625 14.875 13.375  Q 16.65625 9.859375 20.171875 7.921875  Q 23.6875 6 27.734375 6  Q 34.03125 6 38.125 10.046875  Q 42.234375 14.109375 42.234375 20.359375  Q 42.234375 26.703125 38.015625 30.859375  Q 33.796875 35.015625 27.4375 35.015625  Q 21.234375 35.015625 17.15625 30.90625  Q 13.09375 26.8125 13.09375 20.65625  z " id="ArialMT-56" />
     </defs>
     <use xlink:href="#ArialMT-110" />
     <use x="55.615234" xlink:href="#ArialMT-61" />
     <use x="114.013672" xlink:href="#ArialMT-50" />
     <use x="169.628906" xlink:href="#ArialMT-54" />
     <use x="225.244141" xlink:href="#ArialMT-56" />
    </g>
    
    <g style="fill:#444443;" transform="translate(36.757571 97.622017)scale(0.09 -0.09)">
     <defs>
      <path d="M 4.15625 35.296875  Q 4.15625 48 6.765625 55.734375  Q 9.375 63.484375 14.515625 67.671875  Q 19.671875 71.875 27.484375 71.875  Q 33.25 71.875 37.59375 69.546875  Q 41.9375 67.234375 44.765625 62.859375  Q 47.609375 58.5 49.21875 52.21875  Q 50.828125 45.953125 50.828125 35.296875  Q 50.828125 22.703125 48.234375 14.96875  Q 45.65625 7.234375 40.5 3  Q 35.359375 -1.21875 27.484375 -1.21875  Q 17.140625 -1.21875 11.234375 6.203125  Q 4.15625 15.140625 4.15625 35.296875  z M 13.1875 35.296875  Q 13.1875 17.671875 17.3125 11.828125  Q 21.4375 6 27.484375 6  Q 33.546875 6 37.671875 11.859375  Q 41.796875 17.71875 41.796875 35.296875  Q 41.796875 52.984375 37.671875 58.78125  Q 33.546875 64.59375 27.390625 64.59375  Q 21.34375 64.59375 17.71875 59.46875  Q 13.1875 52.9375 13.1875 35.296875  z " id="ArialMT-48" />
     </defs>
     <use xlink:href="#ArialMT-48" />
    </g>
   </g>
  </g>
 </g>
</svg></g>

<g id="edge1" class="edge">
<title>node0-&gt;leaf1</title>
<path fill="none" stroke="#444443" stroke-width="0.3" d="M71.46,-145.47C67.46,-134.61 58.23,-109.58 49.88,-86.92" />
<polygon fill="#444443" stroke="#444443" stroke-width="0.3" points="51.13,-86.28 48.44,-83.01 48.51,-87.25 51.13,-86.28" />
<text text-anchor="start" x="56.5" y="-94.8" font-family="Times New Roman,serif" font-size="14.00">&#8804;</text>
</g>

<g id="node3" class="node">
<title>leaf2</title>
<polygon fill="none" stroke="#444443" stroke-width="0" points="148,-83 81,-83 81,0 148,0 148,-83" />
<svg height="75px" version="1.1" viewBox="0 0 78.519992 99.410761" width="59px" preserveAspectRatio="xMinYMin meet" x="85.5" y="-78.5">
 <metadata>
  <rdf:RDF>
   <ns2:Work>
    <dc:type rdf:resource="http://purl.org/dc/dcmitype/StillImage" />
    <dc:date>2021-08-23T14:07:19.210556</dc:date>
    <dc:format>image/svg+xml</dc:format>
    <dc:creator>
     <ns2:Agent>
      <dc:title>Matplotlib v3.3.2, https://matplotlib.org/</dc:title>
     </ns2:Agent>
    </dc:creator>
   </ns2:Work>
  </rdf:RDF>
 </metadata>
 <defs>
  <style type="text/css">*{stroke-linecap:butt;stroke-linejoin:round;}</style>
 </defs>
 <g id="figure_1">
  <g id="patch_1">
   <path d="M 0 99.410761  L 78.519992 99.410761  L 78.519992 0  L 0 0  z " style="fill:#ffffff;" />
  </g>
  <g id="axes_1">
   <g id="patch_2">
    <path d="M 78.519992 39.259993  C 78.519992 39.259993 78.519992 39.259993 78.519992 39.259993  L 39.259992 39.259993  L 78.519992 39.259993  z " style="fill:#440154;stroke:#444443;stroke-linejoin:miter;stroke-width:0.5;" />
   </g>
   <g id="patch_3">
    <path d="M 78.519992 39.259993  C 78.519992 34.492256 77.6515 29.764152 75.957127 25.30765  C 74.262754 20.851148 71.770668 16.740339 68.603137 13.176905  C 65.435605 9.613472 61.645289 6.656659 57.418148 4.451531  C 53.191006 2.246404 48.597318 0.829624 43.862456 0.2707  C 39.127593 -0.288223 34.330278 0.020002 29.705872 1.180255  C 25.081467 2.340508 20.706855 4.333498 16.796661 7.061446  C 12.886468 9.789394 9.505703 13.206947 6.820231 17.146433  C 4.134759 21.08592 2.189228 25.481844 1.079089 30.118535  C -0.031051 34.755226 -0.287341 39.555596 0.322791 44.284132  C 0.932922 49.012668 2.399333 53.590755 4.650078 57.793785  C 6.900823 61.996815 9.898482 65.75491 13.495986 68.883693  C 17.09349 72.012475 21.231028 74.459927 25.705606 76.105972  C 30.180184 77.752018 34.917409 78.56929 39.684867 78.517694  C 44.452324 78.466097 49.170752 77.546488 53.608656 75.803985  C 58.046561 74.061483 62.13016 71.525056 65.659105 68.319146  C 69.188051 65.113236 72.103671 61.291143 74.262923 57.040385  L 39.259992 39.259993  L 78.519992 39.259993  z " style="fill:#21918c;stroke:#444443;stroke-linejoin:miter;stroke-width:0.5;" />
   </g>
   <g id="patch_4">
    <path d="M 74.262923 57.040385  C 74.409536 56.75176 74.552573 56.461332 74.692002 56.169168  C 74.831431 55.877004 74.967241 55.583127 75.099401 55.287604  L 39.259992 39.259993  L 74.262923 57.040385  z " style="fill:#fde725;stroke:#444443;stroke-linejoin:miter;stroke-width:0.5;" />
   </g>
   <g id="patch_5">
    <path d="M 75.099401 55.287604  C 75.099401 55.287604 75.099401 55.287604 75.099401 55.287604  L 39.259992 39.259993  L 75.099401 55.287604  z " style="fill:#5ec962;stroke:#444443;stroke-linejoin:miter;stroke-width:0.5;" />
   </g>
   <g id="patch_6">
    <path d="M 75.099401 55.287604  C 76.223778 52.773379 77.080472 50.147803 77.655321 47.454274  C 78.230171 44.760745 78.519991 42.014187 78.519992 39.259999  L 39.259992 39.259993  L 75.099401 55.287604  z " style="fill:#ffbaab;stroke:#444443;stroke-linejoin:miter;stroke-width:0.5;" />
   </g>
   <g id="text_1">
    
    <g style="fill:#444443;" transform="translate(26.622023 88.102824)scale(0.09 -0.09)">
     <defs>
      <path d="M 6.59375 0  L 6.59375 51.859375  L 14.5 51.859375  L 14.5 44.484375  Q 20.21875 53.03125 31 53.03125  Q 35.6875 53.03125 39.625 51.34375  Q 43.5625 49.65625 45.515625 46.921875  Q 47.46875 44.1875 48.25 40.4375  Q 48.734375 37.984375 48.734375 31.890625  L 48.734375 0  L 39.9375 0  L 39.9375 31.546875  Q 39.9375 36.921875 38.90625 39.578125  Q 37.890625 42.234375 35.28125 43.8125  Q 32.671875 45.40625 29.15625 45.40625  Q 23.53125 45.40625 19.453125 41.84375  Q 15.375 38.28125 15.375 28.328125  L 15.375 0  z " id="ArialMT-110" />
      <path d="M 52.828125 42.09375  L 5.5625 42.09375  L 5.5625 50.296875  L 52.828125 50.296875  z M 52.828125 20.359375  L 5.5625 20.359375  L 5.5625 28.5625  L 52.828125 28.5625  z " id="ArialMT-61" />
      <path d="M 50.34375 8.453125  L 50.34375 0  L 3.03125 0  Q 2.9375 3.171875 4.046875 6.109375  Q 5.859375 10.9375 9.828125 15.625  Q 13.8125 20.3125 21.34375 26.46875  Q 33.015625 36.03125 37.109375 41.625  Q 41.21875 47.21875 41.21875 52.203125  Q 41.21875 57.421875 37.46875 61  Q 33.734375 64.59375 27.734375 64.59375  Q 21.390625 64.59375 17.578125 60.78125  Q 13.765625 56.984375 13.71875 50.25  L 4.6875 51.171875  Q 5.609375 61.28125 11.65625 66.578125  Q 17.71875 71.875 27.9375 71.875  Q 38.234375 71.875 44.234375 66.15625  Q 50.25 60.453125 50.25 52  Q 50.25 47.703125 48.484375 43.546875  Q 46.734375 39.40625 42.65625 34.8125  Q 38.578125 30.21875 29.109375 22.21875  Q 21.1875 15.578125 18.9375 13.203125  Q 16.703125 10.84375 15.234375 8.453125  z " id="ArialMT-50" />
      <path d="M 4.15625 18.75  L 13.375 19.53125  Q 14.40625 12.796875 18.140625 9.390625  Q 21.875 6 27.15625 6  Q 33.5 6 37.890625 10.78125  Q 42.28125 15.578125 42.28125 23.484375  Q 42.28125 31 38.0625 35.34375  Q 33.84375 39.703125 27 39.703125  Q 22.75 39.703125 19.328125 37.765625  Q 15.921875 35.84375 13.96875 32.765625  L 5.71875 33.84375  L 12.640625 70.609375  L 48.25 70.609375  L 48.25 62.203125  L 19.671875 62.203125  L 15.828125 42.96875  Q 22.265625 47.46875 29.34375 47.46875  Q 38.71875 47.46875 45.15625 40.96875  Q 51.609375 34.46875 51.609375 24.265625  Q 51.609375 14.546875 45.953125 7.46875  Q 39.0625 -1.21875 27.15625 -1.21875  Q 17.390625 -1.21875 11.203125 4.25  Q 5.03125 9.71875 4.15625 18.75  z " id="ArialMT-53" />
      <path d="M 32.328125 0  L 32.328125 17.140625  L 1.265625 17.140625  L 1.265625 25.203125  L 33.9375 71.578125  L 41.109375 71.578125  L 41.109375 25.203125  L 50.78125 25.203125  L 50.78125 17.140625  L 41.109375 17.140625  L 41.109375 0  z M 32.328125 25.203125  L 32.328125 57.46875  L 9.90625 25.203125  z " id="ArialMT-52" />
     </defs>
     <use xlink:href="#ArialMT-110" />
     <use x="55.615234" xlink:href="#ArialMT-61" />
     <use x="114.013672" xlink:href="#ArialMT-50" />
     <use x="169.628906" xlink:href="#ArialMT-53" />
     <use x="225.244141" xlink:href="#ArialMT-52" />
    </g>
    
    <g style="fill:#444443;" transform="translate(36.75757 97.622011)scale(0.09 -0.09)">
     <defs>
      <path d="M 37.25 0  L 28.46875 0  L 28.46875 56  Q 25.296875 52.984375 20.140625 49.953125  Q 14.984375 46.921875 10.890625 45.40625  L 10.890625 53.90625  Q 18.265625 57.375 23.78125 62.296875  Q 29.296875 67.234375 31.59375 71.875  L 37.25 71.875  z " id="ArialMT-49" />
     </defs>
     <use xlink:href="#ArialMT-49" />
    </g>
   </g>
  </g>
 </g>
</svg></g>

<g id="edge2" class="edge">
<title>node0-&gt;leaf2</title>
<path fill="none" stroke="#444443" stroke-width="0.3" d="M75.59,-145.47C79.69,-134.61 89.15,-109.58 97.71,-86.92" />
<polygon fill="#444443" stroke="#444443" stroke-width="0.3" points="99.09,-87.25 99.19,-83.01 96.47,-86.26 99.09,-87.25" />
<text text-anchor="start" x="95.5" y="-94.8" font-family="Times New Roman,serif" font-size="14.00">&gt;</text>
</g>


<g id="node4" class="node">
<title>legend</title>
<polygon fill="none" stroke="black" stroke-width="0" points="166.5,-190 120.5,-190 120.5,-114 166.5,-114 166.5,-190" />
<svg height="72px" version="1.1" viewBox="0 0 55.8 95.895313" width="42px" preserveAspectRatio="xMinYMin meet" x="122.5" y="-188">
 <metadata>
  <rdf:RDF>
   <ns2:Work>
    <dc:type rdf:resource="http://purl.org/dc/dcmitype/StillImage" />
    <dc:date>2021-08-23T14:07:19.088554</dc:date>
    <dc:format>image/svg+xml</dc:format>
    <dc:creator>
     <ns2:Agent>
      <dc:title>Matplotlib v3.3.2, https://matplotlib.org/</dc:title>
     </ns2:Agent>
    </dc:creator>
   </ns2:Work>
  </rdf:RDF>
 </metadata>
 <defs>
  <style type="text/css">*{stroke-linecap:butt;stroke-linejoin:round;}</style>
 </defs>
 <g id="figure_1">
  <g id="patch_1">
   <path d="M 0 95.895313  L 55.8 95.895313  L 55.8 0  L 0 0  z " style="fill:#ffffff;" />
  </g>
  <g id="axes_1">
   <g id="legend_1">
    <g id="patch_2">
     <path d="M 4.1 95.895313  L 51.7 95.895313  Q 54.1 95.895313 54.1 93.495312  L 54.1 2.4  Q 54.1 0 51.7 0  L 4.1 0  Q 1.7 0 1.7 2.4  L 1.7 93.495312  Q 1.7 95.895313 4.1 95.895313  z " style="fill:#e5e5e5;opacity:0.8;stroke:#444443;stroke-linejoin:miter;stroke-width:0.5;" />
    </g>
    <g id="patch_3">
     <path d="M 11.3 18  L 35.3 18  L 35.3 9.6  L 11.3 9.6  z " style="fill:#440154;stroke:#444443;stroke-linejoin:miter;stroke-width:0.4;" />
    </g>
    <g id="text_1">
     
     <g style="fill:#444443;" transform="translate(39.5 18)scale(0.1 -0.1)">
      <defs>
       <path d="M 3.609375 32.71875  Q 3.609375 44.046875 7.03125 52.21875  Q 10.453125 60.40625 16.109375 64.40625  Q 20.515625 67.578125 25.203125 67.578125  Q 32.8125 67.578125 38.875 59.8125  Q 46.4375 50.203125 46.4375 33.734375  Q 46.4375 22.21875 43.109375 14.15625  Q 39.796875 6.109375 34.640625 2.46875  Q 29.5 -1.171875 24.703125 -1.171875  Q 15.234375 -1.171875 8.9375 10.015625  Q 3.609375 19.4375 3.609375 32.71875  z M 13.1875 31.5  Q 13.1875 17.828125 16.546875 9.1875  Q 19.34375 1.90625 24.859375 1.90625  Q 27.484375 1.90625 30.3125 4.265625  Q 33.15625 6.640625 34.625 12.203125  Q 36.859375 20.609375 36.859375 35.890625  Q 36.859375 47.21875 34.515625 54.78125  Q 32.765625 60.40625 29.984375 62.75  Q 27.984375 64.359375 25.140625 64.359375  Q 21.828125 64.359375 19.234375 61.375  Q 15.71875 57.328125 14.453125 48.625  Q 13.1875 39.9375 13.1875 31.5  z " id="TimesNewRomanPSMT-48" />
      </defs>
      <use xlink:href="#TimesNewRomanPSMT-48" />
     </g>
    </g>
    <g id="patch_4">
     <path d="M 11.3 34.539063  L 35.3 34.539063  L 35.3 26.139063  L 11.3 26.139063  z " style="fill:#21918c;stroke:#444443;stroke-linejoin:miter;stroke-width:0.4;" />
    </g>
    <g id="text_2">
     
     <g style="fill:#444443;" transform="translate(39.5 34.539063)scale(0.1 -0.1)">
      <defs>
       <path d="M 11.71875 59.71875  L 27.828125 67.578125  L 29.4375 67.578125  L 29.4375 11.671875  Q 29.4375 6.109375 29.90625 4.734375  Q 30.375 3.375 31.828125 2.640625  Q 33.296875 1.90625 37.796875 1.8125  L 37.796875 0  L 12.890625 0  L 12.890625 1.8125  Q 17.578125 1.90625 18.9375 2.609375  Q 20.3125 3.328125 20.84375 4.515625  Q 21.390625 5.71875 21.390625 11.671875  L 21.390625 47.40625  Q 21.390625 54.640625 20.90625 56.6875  Q 20.5625 58.25 19.65625 58.984375  Q 18.75 59.71875 17.484375 59.71875  Q 15.671875 59.71875 12.453125 58.203125  z " id="TimesNewRomanPSMT-49" />
      </defs>
      <use xlink:href="#TimesNewRomanPSMT-49" />
     </g>
    </g>
    <g id="patch_5">
     <path d="M 11.3 51.078125  L 35.3 51.078125  L 35.3 42.678125  L 11.3 42.678125  z " style="fill:#fde725;stroke:#444443;stroke-linejoin:miter;stroke-width:0.4;" />
    </g>
    <g id="text_3">
     
     <g style="fill:#444443;" transform="translate(39.5 51.078125)scale(0.1 -0.1)">
      <defs>
       <path d="M 45.84375 12.75  L 41.21875 0  L 2.15625 0  L 2.15625 1.8125  Q 19.390625 17.53125 26.421875 27.484375  Q 33.453125 37.453125 33.453125 45.703125  Q 33.453125 52 29.59375 56.046875  Q 25.734375 60.109375 20.359375 60.109375  Q 15.484375 60.109375 11.59375 57.25  Q 7.71875 54.390625 5.859375 48.875  L 4.046875 48.875  Q 5.28125 57.90625 10.328125 62.734375  Q 15.375 67.578125 22.953125 67.578125  Q 31 67.578125 36.390625 62.40625  Q 41.796875 57.234375 41.796875 50.203125  Q 41.796875 45.171875 39.453125 40.140625  Q 35.84375 32.234375 27.734375 23.390625  Q 15.578125 10.109375 12.546875 7.375  L 29.828125 7.375  Q 35.109375 7.375 37.234375 7.765625  Q 39.359375 8.15625 41.0625 9.34375  Q 42.78125 10.546875 44.046875 12.75  z " id="TimesNewRomanPSMT-50" />
      </defs>
      <use xlink:href="#TimesNewRomanPSMT-50" />
     </g>
    </g>
    <g id="patch_6">
     <path d="M 11.3 67.617188  L 35.3 67.617188  L 35.3 59.217188  L 11.3 59.217188  z " style="fill:#5ec962;stroke:#444443;stroke-linejoin:miter;stroke-width:0.4;" />
    </g>
    <g id="text_4">
     
     <g style="fill:#444443;" transform="translate(39.5 67.617188)scale(0.1 -0.1)">
      <defs>
       <path d="M 5.078125 53.609375  Q 7.90625 60.296875 12.21875 63.9375  Q 16.546875 67.578125 23 67.578125  Q 30.953125 67.578125 35.203125 62.40625  Q 38.421875 58.546875 38.421875 54.15625  Q 38.421875 46.921875 29.34375 39.203125  Q 35.453125 36.8125 38.578125 32.375  Q 41.703125 27.9375 41.703125 21.921875  Q 41.703125 13.328125 36.234375 7.03125  Q 29.109375 -1.171875 15.578125 -1.171875  Q 8.890625 -1.171875 6.46875 0.484375  Q 4.046875 2.15625 4.046875 4.046875  Q 4.046875 5.46875 5.1875 6.546875  Q 6.34375 7.625 7.953125 7.625  Q 9.1875 7.625 10.453125 7.234375  Q 11.28125 6.984375 14.203125 5.4375  Q 17.140625 3.90625 18.265625 3.609375  Q 20.0625 3.078125 22.125 3.078125  Q 27.09375 3.078125 30.78125 6.9375  Q 34.46875 10.796875 34.46875 16.0625  Q 34.46875 19.921875 32.765625 23.578125  Q 31.5 26.3125 29.984375 27.734375  Q 27.875 29.6875 24.21875 31.265625  Q 20.5625 32.859375 16.75 32.859375  L 15.1875 32.859375  L 15.1875 34.328125  Q 19.046875 34.8125 22.921875 37.109375  Q 26.8125 39.40625 28.5625 42.625  Q 30.328125 45.84375 30.328125 49.703125  Q 30.328125 54.734375 27.171875 57.828125  Q 24.03125 60.9375 19.34375 60.9375  Q 11.765625 60.9375 6.6875 52.828125  z " id="TimesNewRomanPSMT-51" />
      </defs>
      <use xlink:href="#TimesNewRomanPSMT-51" />
     </g>
    </g>
    <g id="patch_7">
     <path d="M 11.3 84.15625  L 35.3 84.15625  L 35.3 75.75625  L 11.3 75.75625  z " style="fill:#ffbaab;stroke:#444443;stroke-linejoin:miter;stroke-width:0.4;" />
    </g>
    <g id="text_5">
     
     <g style="fill:#444443;" transform="translate(39.5 84.15625)scale(0.1 -0.1)">
      <defs>
       <path d="M 46.53125 24.421875  L 46.53125 17.484375  L 37.640625 17.484375  L 37.640625 0  L 29.59375 0  L 29.59375 17.484375  L 1.5625 17.484375  L 1.5625 23.734375  L 32.28125 67.578125  L 37.640625 67.578125  L 37.640625 24.421875  z M 29.59375 24.421875  L 29.59375 57.28125  L 6.34375 24.421875  z " id="TimesNewRomanPSMT-52" />
      </defs>
      <use xlink:href="#TimesNewRomanPSMT-52" />
     </g>
    </g>
   </g>
  </g>
 </g>
</svg></g>
</g>
</svg>