<svg xmlns="http://www.w3.org/2000/svg" xmlns:dc="http://purl.org/dc/elements/1.1/" xmlns:ns2="http://creativecommons.org/ns#" xmlns:rdf="http://www.w3.org/1999/02/22-rdf-syntax-ns#" xmlns:xlink="http://www.w3.org/1999/xlink" width="227.0" height="231.0" viewBox="0.0 0.0 226.5 231.0">
<g id="graph0" class="graph" transform="scale(1.0 1.0) rotate(0) translate(4 227)">
<title>G</title>
<polygon fill="white" stroke="transparent" points="-4,4 -4,-227 222.5,-227 222.5,4 -4,4" />
<g id="clust2" class="cluster">
<title>cluster_legend</title>
</g>

<g id="node1" class="node">
<title>node0</title>
<text text-anchor="start" x="23.5" y="-161.4" font-family="Helvetica,sans-Serif" font-size="12.00" fill="#444443">LogOfAreas@1.48</text>
</g>

<g id="node2" class="node">
<title>leaf1</title>
<polygon fill="none" stroke="#444443" stroke-width="0" points="67,-83 0,-83 0,0 67,0 67,-83" />
<svg height="75px" version="1.1" viewBox="0 0 78.519994 99.410757" width="59px" preserveAspectRatio="xMinYMin meet" x="4.5" y="-78.5">
 <metadata>
  <rdf:RDF>
   <ns2:Work>
    <dc:type rdf:resource="http://purl.org/dc/dcmitype/StillImage" />
    <dc:date>2021-08-11T21:22:22.593182</dc:date>
    <dc:format>image/svg+xml</dc:format>
    <dc:creator>
     <ns2:Agent>
      <dc:title>Matplotlib v3.3.2, https://matplotlib.org/</dc:title>
     </ns2:Agent>
    </dc:creator>
   </ns2:Work>
  </rdf:RDF>
 </metadata>
 <defs>
  <style type="text/css">*{stroke-linecap:butt;stroke-linejoin:round;}</style>
 </defs>
 <g id="figure_1">
  <g id="patch_1">
   <path d="M 0 99.410757  L 78.519994 99.410757  L 78.519994 0  L 0 0  z " style="fill:#ffffff;" />
  </g>
  <g id="axes_1">
   <g id="patch_2">
    <path d="M 78.519994 39.259988  C 78.519994 39.259988 78.519994 39.259988 78.519994 39.259988  L 39.259994 39.259988  L 78.519994 39.259988  z " style="fill:#440154;stroke:#444443;stroke-linejoin:miter;stroke-width:0.5;" />
   </g>
   <g id="patch_3">
    <path d="M 78.519994 39.259988  C 78.519994 39.259988 78.519994 39.259988 78.519994 39.259988  L 39.259994 39.259988  L 78.519994 39.259988  z " style="fill:#21918c;stroke:#444443;stroke-linejoin:miter;stroke-width:0.5;" />
   </g>
   <g id="patch_4">
    <path d="M 78.519994 39.259988  C 78.519994 38.03251 78.462428 36.805708 78.347485 35.583623  C 78.232542 34.361539 78.060349 33.145517 77.831473 31.939567  L 39.259994 39.259988  L 78.519994 39.259988  z " style="fill:#fde725;stroke:#444443;stroke-linejoin:miter;stroke-width:0.5;" />
   </g>
   <g id="patch_5">
    <path d="M 77.831473 31.939567  C 76.899035 27.026524 75.036427 22.336576 72.344039 18.122496  C 69.651651 13.908416 66.178737 10.247296 62.112478 7.336461  C 58.046219 4.425626 53.461003 2.318326 48.603958 1.128139  C 43.746914 -0.062049 38.706897 -0.31335 33.755549 0.387778  C 28.804202 1.088907 24.032104 2.729639 19.696457 5.221545  C 15.36081 7.71345 11.540932 11.010942 8.442701 14.936295  C 5.344471 18.861647 3.024568 23.34305 1.608028 28.138969  C 0.191488 32.934889 -0.295774 37.957587 0.172503 42.936356  C 0.640781 47.915125 2.056031 52.758883 4.341976 57.206565  C 6.627921 61.654248 9.742742 65.624489 13.51856 68.903304  C 17.294377 72.182119 21.662115 74.709525 26.386367 76.349304  C 31.110619 77.989082 36.104957 78.711234 41.100203 78.476837  C 46.09545 78.24244 51.000219 77.055783 55.550161 74.980823  C 60.100102 72.905863 64.211978 69.98056 67.66417 66.362578  C 71.116363 62.744596 73.845717 58.500123 75.705129 53.857924  C 77.564541 49.215725 78.519995 44.260725 78.519994 39.259982  L 39.259994 39.259988  L 77.831473 31.939567  z " style="fill:#5ec962;stroke:#444443;stroke-linejoin:miter;stroke-width:0.5;" />
   </g>
   <g id="patch_6">
    <path d="M 78.519994 39.259982  C 78.519994 39.259982 78.519994 39.259982 78.519994 39.259982  L 39.259994 39.259988  L 78.519994 39.259982  z " style="fill:#ffbaab;stroke:#444443;stroke-linejoin:miter;stroke-width:0.5;" />
   </g>
   <g id="patch_7">
    <path d="M 78.519994 39.259982  C 78.519994 39.259982 78.519994 39.259982 78.519994 39.259982  L 39.259994 39.259988  L 78.519994 39.259982  z " style="fill:#ff0000;stroke:#444443;stroke-linejoin:miter;stroke-width:0.5;" />
   </g>
   <g id="patch_8">
    <path d="M 78.519994 39.259982  C 78.519994 39.259982 78.519994 39.259982 78.519994 39.259982  L 39.259994 39.259988  L 78.519994 39.259982  z " style="fill:#f7f7f7;stroke:#444443;stroke-linejoin:miter;stroke-width:0.5;" />
   </g>
   <g id="text_1">
    
    <g style="fill:#444443;" transform="translate(29.124447 88.102819)scale(0.09 -0.09)">
     <defs>
      <path d="M 6.59375 0  L 6.59375 51.859375  L 14.5 51.859375  L 14.5 44.484375  Q 20.21875 53.03125 31 53.03125  Q 35.6875 53.03125 39.625 51.34375  Q 43.5625 49.65625 45.515625 46.921875  Q 47.46875 44.1875 48.25 40.4375  Q 48.734375 37.984375 48.734375 31.890625  L 48.734375 0  L 39.9375 0  L 39.9375 31.546875  Q 39.9375 36.921875 38.90625 39.578125  Q 37.890625 42.234375 35.28125 43.8125  Q 32.671875 45.40625 29.15625 45.40625  Q 23.53125 45.40625 19.453125 41.84375  Q 15.375 38.28125 15.375 28.328125  L 15.375 0  z " id="ArialMT-110" />
      <path d="M 52.828125 42.09375  L 5.5625 42.09375  L 5.5625 50.296875  L 52.828125 50.296875  z M 52.828125 20.359375  L 5.5625 20.359375  L 5.5625 28.5625  L 52.828125 28.5625  z " id="ArialMT-61" />
      <path d="M 49.75 54.046875  L 41.015625 53.375  Q 39.84375 58.546875 37.703125 60.890625  Q 34.125 64.65625 28.90625 64.65625  Q 24.703125 64.65625 21.53125 62.3125  Q 17.390625 59.28125 14.984375 53.46875  Q 12.59375 47.65625 12.5 36.921875  Q 15.671875 41.75 20.265625 44.09375  Q 24.859375 46.4375 29.890625 46.4375  Q 38.671875 46.4375 44.84375 39.96875  Q 51.03125 33.5 51.03125 23.25  Q 51.03125 16.5 48.125 10.71875  Q 45.21875 4.9375 40.140625 1.859375  Q 35.0625 -1.21875 28.609375 -1.21875  Q 17.625 -1.21875 10.6875 6.859375  Q 3.765625 14.9375 3.765625 33.5  Q 3.765625 54.25 11.421875 63.671875  Q 18.109375 71.875 29.4375 71.875  Q 37.890625 71.875 43.28125 67.140625  Q 48.6875 62.40625 49.75 54.046875  z M 13.875 23.1875  Q 13.875 18.65625 15.796875 14.5  Q 17.71875 10.359375 21.1875 8.171875  Q 24.65625 6 28.46875 6  Q 34.03125 6 38.03125 10.484375  Q 42.046875 14.984375 42.046875 22.703125  Q 42.046875 30.125 38.078125 34.390625  Q 34.125 38.671875 28.125 38.671875  Q 22.171875 38.671875 18.015625 34.390625  Q 13.875 30.125 13.875 23.1875  z " id="ArialMT-54" />
      <path d="M 4.734375 62.203125  L 4.734375 70.65625  L 51.078125 70.65625  L 51.078125 63.8125  Q 44.234375 56.546875 37.515625 44.484375  Q 30.8125 32.421875 27.15625 19.671875  Q 24.515625 10.6875 23.78125 0  L 14.75 0  Q 14.890625 8.453125 18.0625 20.40625  Q 21.234375 32.375 27.171875 43.484375  Q 33.109375 54.59375 39.796875 62.203125  z " id="ArialMT-55" />
     </defs>
     <use xlink:href="#ArialMT-110" />
     <use x="55.615234" xlink:href="#ArialMT-61" />
     <use x="114.013672" xlink:href="#ArialMT-54" />
     <use x="169.628906" xlink:href="#ArialMT-55" />
    </g>
    
    <g style="fill:#444443;" transform="translate(26.75351 97.622007)scale(0.09 -0.09)">
     <defs>
      <path d="M 4.5 23  L 13.421875 23.78125  Q 14.0625 18.40625 16.375 14.96875  Q 18.703125 11.53125 23.578125 9.40625  Q 28.46875 7.28125 34.578125 7.28125  Q 39.984375 7.28125 44.140625 8.890625  Q 48.296875 10.5 50.3125 13.296875  Q 52.34375 16.109375 52.34375 19.4375  Q 52.34375 22.796875 50.390625 25.3125  Q 48.4375 27.828125 43.953125 29.546875  Q 41.0625 30.671875 31.203125 33.03125  Q 21.34375 35.40625 17.390625 37.5  Q 12.25 40.1875 9.734375 44.15625  Q 7.234375 48.140625 7.234375 53.078125  Q 7.234375 58.5 10.296875 63.203125  Q 13.375 67.921875 19.28125 70.359375  Q 25.203125 72.796875 32.421875 72.796875  Q 40.375 72.796875 46.453125 70.234375  Q 52.546875 67.671875 55.8125 62.6875  Q 59.078125 57.71875 59.328125 51.421875  L 50.25 50.734375  Q 49.515625 57.515625 45.28125 60.984375  Q 41.0625 64.453125 32.8125 64.453125  Q 24.21875 64.453125 20.28125 61.296875  Q 16.359375 58.15625 16.359375 53.71875  Q 16.359375 49.859375 19.140625 47.359375  Q 21.875 44.875 33.421875 42.265625  Q 44.96875 39.65625 49.265625 37.703125  Q 55.515625 34.8125 58.484375 30.390625  Q 61.46875 25.984375 61.46875 20.21875  Q 61.46875 14.5 58.203125 9.4375  Q 54.9375 4.390625 48.796875 1.578125  Q 42.671875 -1.21875 35.015625 -1.21875  Q 25.296875 -1.21875 18.71875 1.609375  Q 12.15625 4.4375 8.421875 10.125  Q 4.6875 15.828125 4.5 23  z " id="ArialMT-83" />
      <path d="M 25.78125 7.859375  L 27.046875 0.09375  Q 23.34375 -0.6875 20.40625 -0.6875  Q 15.625 -0.6875 12.984375 0.828125  Q 10.359375 2.34375 9.28125 4.8125  Q 8.203125 7.28125 8.203125 15.1875  L 8.203125 45.015625  L 1.765625 45.015625  L 1.765625 51.859375  L 8.203125 51.859375  L 8.203125 64.703125  L 16.9375 69.96875  L 16.9375 51.859375  L 25.78125 51.859375  L 25.78125 45.015625  L 16.9375 45.015625  L 16.9375 14.703125  Q 16.9375 10.9375 17.40625 9.859375  Q 17.875 8.796875 18.921875 8.15625  Q 19.96875 7.515625 21.921875 7.515625  Q 23.390625 7.515625 25.78125 7.859375  z " id="ArialMT-116" />
      <path d="M 40.4375 6.390625  Q 35.546875 2.25 31.03125 0.53125  Q 26.515625 -1.171875 21.34375 -1.171875  Q 12.796875 -1.171875 8.203125 3  Q 3.609375 7.171875 3.609375 13.671875  Q 3.609375 17.484375 5.34375 20.625  Q 7.078125 23.78125 9.890625 25.6875  Q 12.703125 27.59375 16.21875 28.5625  Q 18.796875 29.25 24.03125 29.890625  Q 34.671875 31.15625 39.703125 32.90625  Q 39.75 34.71875 39.75 35.203125  Q 39.75 40.578125 37.25 42.78125  Q 33.890625 45.75 27.25 45.75  Q 21.046875 45.75 18.09375 43.578125  Q 15.140625 41.40625 13.71875 35.890625  L 5.125 37.0625  Q 6.296875 42.578125 8.984375 45.96875  Q 11.671875 49.359375 16.75 51.1875  Q 21.828125 53.03125 28.515625 53.03125  Q 35.15625 53.03125 39.296875 51.46875  Q 43.453125 49.90625 45.40625 47.53125  Q 47.359375 45.171875 48.140625 41.546875  Q 48.578125 39.3125 48.578125 33.453125  L 48.578125 21.734375  Q 48.578125 9.46875 49.140625 6.21875  Q 49.703125 2.984375 51.375 0  L 42.1875 0  Q 40.828125 2.734375 40.4375 6.390625  z M 39.703125 26.03125  Q 34.90625 24.078125 25.34375 22.703125  Q 19.921875 21.921875 17.671875 20.9375  Q 15.4375 19.96875 14.203125 18.09375  Q 12.984375 16.21875 12.984375 13.921875  Q 12.984375 10.40625 15.640625 8.0625  Q 18.3125 5.71875 23.4375 5.71875  Q 28.515625 5.71875 32.46875 7.9375  Q 36.421875 10.15625 38.28125 14.015625  Q 39.703125 17 39.703125 22.796875  z " id="ArialMT-97" />
      <path d="M 6.640625 61.46875  L 6.640625 71.578125  L 15.4375 71.578125  L 15.4375 61.46875  z M 6.640625 0  L 6.640625 51.859375  L 15.4375 51.859375  L 15.4375 0  z " id="ArialMT-105" />
      <path d="M 3.078125 15.484375  L 11.765625 16.84375  Q 12.5 11.625 15.84375 8.84375  Q 19.1875 6.0625 25.203125 6.0625  Q 31.25 6.0625 34.171875 8.515625  Q 37.109375 10.984375 37.109375 14.3125  Q 37.109375 17.28125 34.515625 19  Q 32.71875 20.171875 25.53125 21.96875  Q 15.875 24.421875 12.140625 26.203125  Q 8.40625 27.984375 6.46875 31.125  Q 4.546875 34.28125 4.546875 38.09375  Q 4.546875 41.546875 6.125 44.5  Q 7.71875 47.46875 10.453125 49.421875  Q 12.5 50.921875 16.03125 51.96875  Q 19.578125 53.03125 23.640625 53.03125  Q 29.734375 53.03125 34.34375 51.265625  Q 38.96875 49.515625 41.15625 46.5  Q 43.359375 43.5 44.1875 38.484375  L 35.59375 37.3125  Q 35.015625 41.3125 32.203125 43.546875  Q 29.390625 45.796875 24.265625 45.796875  Q 18.21875 45.796875 15.625 43.796875  Q 13.03125 41.796875 13.03125 39.109375  Q 13.03125 37.40625 14.109375 36.03125  Q 15.1875 34.625 17.484375 33.6875  Q 18.796875 33.203125 25.25 31.453125  Q 34.578125 28.953125 38.25 27.359375  Q 41.9375 25.78125 44.03125 22.75  Q 46.140625 19.734375 46.140625 15.234375  Q 46.140625 10.84375 43.578125 6.953125  Q 41.015625 3.078125 36.171875 0.953125  Q 31.34375 -1.171875 25.25 -1.171875  Q 15.140625 -1.171875 9.84375 3.03125  Q 4.546875 7.234375 3.078125 15.484375  z " id="ArialMT-115" />
     </defs>
     <use xlink:href="#ArialMT-83" />
     <use x="66.699219" xlink:href="#ArialMT-116" />
     <use x="94.482422" xlink:href="#ArialMT-97" />
     <use x="150.097656" xlink:href="#ArialMT-105" />
     <use x="172.314453" xlink:href="#ArialMT-110" />
     <use x="227.929688" xlink:href="#ArialMT-115" />
    </g>
   </g>
  </g>
 </g>
</svg></g>

<g id="edge1" class="edge">
<title>node0-&gt;leaf1</title>
<path fill="none" stroke="#444443" stroke-width="0.3" d="M71.68,-157.99C67.55,-145.52 57.18,-114.13 48.28,-87.22" />
<polygon fill="#444443" stroke="#444443" stroke-width="0.3" points="49.57,-86.65 46.98,-83.29 46.91,-87.53 49.57,-86.65" />
<text text-anchor="start" x="53.5" y="-94.8" font-family="Times New Roman,serif" font-size="14.00">&#8804;</text>
</g>

<g id="node3" class="node">
<title>leaf2</title>
<polygon fill="none" stroke="#444443" stroke-width="0" points="148,-83 81,-83 81,0 148,0 148,-83" />
<svg height="75px" version="1.1" viewBox="0 0 78.52 99.410747" width="59px" preserveAspectRatio="xMinYMin meet" x="85.5" y="-78.5">
 <metadata>
  <rdf:RDF>
   <ns2:Work>
    <dc:type rdf:resource="http://purl.org/dc/dcmitype/StillImage" />
    <dc:date>2021-08-11T21:22:22.742182</dc:date>
    <dc:format>image/svg+xml</dc:format>
    <dc:creator>
     <ns2:Agent>
      <dc:title>Matplotlib v3.3.2, https://matplotlib.org/</dc:title>
     </ns2:Agent>
    </dc:creator>
   </ns2:Work>
  </rdf:RDF>
 </metadata>
 <defs>
  <style type="text/css">*{stroke-linecap:butt;stroke-linejoin:round;}</style>
 </defs>
 <g id="figure_1">
  <g id="patch_1">
   <path d="M 0 99.410747  L 78.52 99.410747  L 78.52 0  L 0 0  z " style="fill:#ffffff;" />
  </g>
  <g id="axes_1">
   <g id="patch_2">
    <path d="M 78.52 39.259978  C 78.52 37.72874 78.430416 36.198812 78.251709 34.678037  C 78.073002 33.157263 77.805477 31.648245 77.450505 30.15872  L 39.26 39.259978  L 78.52 39.259978  z " style="fill:#440154;stroke:#444443;stroke-linejoin:miter;stroke-width:0.5;" />
   </g>
   <g id="patch_3">
    <path d="M 77.450505 30.15872  C 77.399809 29.94599 77.347336 29.733687 77.293092 29.521834  C 77.238849 29.309981 77.182836 29.098584 77.125059 28.887667  L 39.26 39.259978  L 77.450505 30.15872  z " style="fill:#21918c;stroke:#444443;stroke-linejoin:miter;stroke-width:0.5;" />
   </g>
   <g id="patch_4">
    <path d="M 77.125059 28.887667  C 74.733337 20.156466 69.393734 12.515636 62.016837 7.268199  C 54.639939 2.020762 45.67036 -0.517013 36.63772 0.087651  L 39.26 39.259978  L 77.125059 28.887667  z " style="fill:#fde725;stroke:#444443;stroke-linejoin:miter;stroke-width:0.5;" />
   </g>
   <g id="patch_5">
    <path d="M 36.63772 0.087651  C 35.546573 0.160695 34.458954 0.279297 33.377709 0.443149  C 32.296465 0.607 31.222538 0.815957 30.15874 1.069474  L 39.26 39.259978  L 36.63772 0.087651  z " style="fill:#5ec962;stroke:#444443;stroke-linejoin:miter;stroke-width:0.5;" />
   </g>
   <g id="patch_6">
    <path d="M 30.15874 1.069474  C 30.15874 1.069474 30.15874 1.069474 30.15874 1.069474  L 39.26 39.259978  L 30.15874 1.069474  z " style="fill:#ffbaab;stroke:#444443;stroke-linejoin:miter;stroke-width:0.5;" />
   </g>
   <g id="patch_7">
    <path d="M 30.15874 1.069474  C 21.461886 3.142039 13.728553 8.12441 8.246557 15.186882  C 2.764561 22.249354 -0.143912 30.976854 0.005481 39.916008  C 0.154874 48.855162 3.353352 57.480601 9.06828 64.355948  C 14.783208 71.231295 22.678709 75.952473 31.439961 77.733276  L 39.26 39.259978  L 30.15874 1.069474  z " style="fill:#ff0000;stroke:#444443;stroke-linejoin:miter;stroke-width:0.5;" />
   </g>
   <g id="patch_8">
    <path d="M 31.439961 77.733276  C 37.142114 78.892289 43.03126 78.769257 48.680033 77.373107  C 54.328806 75.976957 59.597179 73.3423 64.102835 69.660326  C 68.608491 65.978352 72.239741 61.340335 74.73307 56.082847  C 77.226398 50.825359 78.52 45.078728 78.52 39.259976  L 39.26 39.259978  L 31.439961 77.733276  z " style="fill:#f7f7f7;stroke:#444443;stroke-linejoin:miter;stroke-width:0.5;" />
   </g>
   <g id="text_1">
    
    <g style="fill:#444443;" transform="translate(26.622031 88.10281)scale(0.09 -0.09)">
     <defs>
      <path d="M 6.59375 0  L 6.59375 51.859375  L 14.5 51.859375  L 14.5 44.484375  Q 20.21875 53.03125 31 53.03125  Q 35.6875 53.03125 39.625 51.34375  Q 43.5625 49.65625 45.515625 46.921875  Q 47.46875 44.1875 48.25 40.4375  Q 48.734375 37.984375 48.734375 31.890625  L 48.734375 0  L 39.9375 0  L 39.9375 31.546875  Q 39.9375 36.921875 38.90625 39.578125  Q 37.890625 42.234375 35.28125 43.8125  Q 32.671875 45.40625 29.15625 45.40625  Q 23.53125 45.40625 19.453125 41.84375  Q 15.375 38.28125 15.375 28.328125  L 15.375 0  z " id="ArialMT-110" />
      <path d="M 52.828125 42.09375  L 5.5625 42.09375  L 5.5625 50.296875  L 52.828125 50.296875  z M 52.828125 20.359375  L 5.5625 20.359375  L 5.5625 28.5625  L 52.828125 28.5625  z " id="ArialMT-61" />
      <path d="M 37.25 0  L 28.46875 0  L 28.46875 56  Q 25.296875 52.984375 20.140625 49.953125  Q 14.984375 46.921875 10.890625 45.40625  L 10.890625 53.90625  Q 18.265625 57.375 23.78125 62.296875  Q 29.296875 67.234375 31.59375 71.875  L 37.25 71.875  z " id="ArialMT-49" />
      <path d="M 17.671875 38.8125  Q 12.203125 40.828125 9.5625 44.53125  Q 6.9375 48.25 6.9375 53.421875  Q 6.9375 61.234375 12.546875 66.546875  Q 18.171875 71.875 27.484375 71.875  Q 36.859375 71.875 42.578125 66.421875  Q 48.296875 60.984375 48.296875 53.171875  Q 48.296875 48.1875 45.671875 44.5  Q 43.0625 40.828125 37.75 38.8125  Q 44.34375 36.671875 47.78125 31.875  Q 51.21875 27.09375 51.21875 20.453125  Q 51.21875 11.28125 44.71875 5.03125  Q 38.234375 -1.21875 27.640625 -1.21875  Q 17.046875 -1.21875 10.546875 5.046875  Q 4.046875 11.328125 4.046875 20.703125  Q 4.046875 27.6875 7.59375 32.390625  Q 11.140625 37.109375 17.671875 38.8125  z M 15.921875 53.71875  Q 15.921875 48.640625 19.1875 45.40625  Q 22.46875 42.1875 27.6875 42.1875  Q 32.765625 42.1875 36.015625 45.375  Q 39.265625 48.578125 39.265625 53.21875  Q 39.265625 58.0625 35.90625 61.359375  Q 32.5625 64.65625 27.59375 64.65625  Q 22.5625 64.65625 19.234375 61.421875  Q 15.921875 58.203125 15.921875 53.71875  z M 13.09375 20.65625  Q 13.09375 16.890625 14.875 13.375  Q 16.65625 9.859375 20.171875 7.921875  Q 23.6875 6 27.734375 6  Q 34.03125 6 38.125 10.046875  Q 42.234375 14.109375 42.234375 20.359375  Q 42.234375 26.703125 38.015625 30.859375  Q 33.796875 35.015625 27.4375 35.015625  Q 21.234375 35.015625 17.15625 30.90625  Q 13.09375 26.8125 13.09375 20.65625  z " id="ArialMT-56" />
     </defs>
     <use xlink:href="#ArialMT-110" />
     <use x="55.615234" xlink:href="#ArialMT-61" />
     <use x="114.013672" xlink:href="#ArialMT-49" />
     <use x="169.628906" xlink:href="#ArialMT-56" />
     <use x="225.244141" xlink:href="#ArialMT-56" />
    </g>
    
    <g style="fill:#444443;" transform="translate(25.255156 97.621997)scale(0.09 -0.09)">
     <defs>
      <path d="M 7.328125 0  L 7.328125 71.578125  L 34.1875 71.578125  Q 42.390625 71.578125 47.34375 69.40625  Q 52.296875 67.234375 55.09375 62.71875  Q 57.90625 58.203125 57.90625 53.265625  Q 57.90625 48.6875 55.421875 44.625  Q 52.9375 40.578125 47.90625 38.09375  Q 54.390625 36.1875 57.875 31.59375  Q 61.375 27 61.375 20.75  Q 61.375 15.71875 59.25 11.390625  Q 57.125 7.078125 54 4.734375  Q 50.875 2.390625 46.15625 1.1875  Q 41.453125 0 34.625 0  z M 16.796875 41.5  L 32.28125 41.5  Q 38.578125 41.5 41.3125 42.328125  Q 44.921875 43.40625 46.75 45.890625  Q 48.578125 48.390625 48.578125 52.15625  Q 48.578125 55.71875 46.875 58.421875  Q 45.171875 61.140625 41.984375 62.140625  Q 38.8125 63.140625 31.109375 63.140625  L 16.796875 63.140625  z M 16.796875 8.453125  L 34.625 8.453125  Q 39.203125 8.453125 41.0625 8.796875  Q 44.34375 9.375 46.53125 10.734375  Q 48.734375 12.109375 50.140625 14.71875  Q 51.5625 17.328125 51.5625 20.75  Q 51.5625 24.75 49.515625 27.703125  Q 47.46875 30.671875 43.828125 31.859375  Q 40.1875 33.0625 33.34375 33.0625  L 16.796875 33.0625  z " id="ArialMT-66" />
      <path d="M 40.578125 0  L 40.578125 7.625  Q 34.515625 -1.171875 24.125 -1.171875  Q 19.53125 -1.171875 15.546875 0.578125  Q 11.578125 2.34375 9.640625 5  Q 7.71875 7.671875 6.9375 11.53125  Q 6.390625 14.109375 6.390625 19.734375  L 6.390625 51.859375  L 15.1875 51.859375  L 15.1875 23.09375  Q 15.1875 16.21875 15.71875 13.8125  Q 16.546875 10.359375 19.234375 8.375  Q 21.921875 6.390625 25.875 6.390625  Q 29.828125 6.390625 33.296875 8.421875  Q 36.765625 10.453125 38.203125 13.9375  Q 39.65625 17.4375 39.65625 24.078125  L 39.65625 51.859375  L 48.4375 51.859375  L 48.4375 0  z " id="ArialMT-117" />
      <path d="M 6.59375 0  L 6.59375 51.859375  L 14.453125 51.859375  L 14.453125 44.578125  Q 16.890625 48.390625 20.9375 50.703125  Q 25 53.03125 30.171875 53.03125  Q 35.9375 53.03125 39.625 50.640625  Q 43.3125 48.25 44.828125 43.953125  Q 50.984375 53.03125 60.84375 53.03125  Q 68.5625 53.03125 72.703125 48.75  Q 76.859375 44.484375 76.859375 35.59375  L 76.859375 0  L 68.109375 0  L 68.109375 32.671875  Q 68.109375 37.9375 67.25 40.25  Q 66.40625 42.578125 64.15625 43.984375  Q 61.921875 45.40625 58.890625 45.40625  Q 53.421875 45.40625 49.796875 41.765625  Q 46.1875 38.140625 46.1875 30.125  L 46.1875 0  L 37.40625 0  L 37.40625 33.6875  Q 37.40625 39.546875 35.25 42.46875  Q 33.109375 45.40625 28.21875 45.40625  Q 24.515625 45.40625 21.359375 43.453125  Q 18.21875 41.5 16.796875 37.734375  Q 15.375 33.984375 15.375 26.90625  L 15.375 0  z " id="ArialMT-109" />
      <path d="M 6.59375 -19.875  L 6.59375 51.859375  L 14.59375 51.859375  L 14.59375 45.125  Q 17.4375 49.078125 21 51.046875  Q 24.5625 53.03125 29.640625 53.03125  Q 36.28125 53.03125 41.359375 49.609375  Q 46.4375 46.1875 49.015625 39.953125  Q 51.609375 33.734375 51.609375 26.3125  Q 51.609375 18.359375 48.75 11.984375  Q 45.90625 5.609375 40.453125 2.21875  Q 35.015625 -1.171875 29 -1.171875  Q 24.609375 -1.171875 21.109375 0.6875  Q 17.625 2.546875 15.375 5.375  L 15.375 -19.875  z M 14.546875 25.640625  Q 14.546875 15.625 18.59375 10.84375  Q 22.65625 6.0625 28.421875 6.0625  Q 34.28125 6.0625 38.453125 11.015625  Q 42.625 15.96875 42.625 26.375  Q 42.625 36.28125 38.546875 41.203125  Q 34.46875 46.140625 28.8125 46.140625  Q 23.1875 46.140625 18.859375 40.890625  Q 14.546875 35.640625 14.546875 25.640625  z " id="ArialMT-112" />
      <path d="M 3.078125 15.484375  L 11.765625 16.84375  Q 12.5 11.625 15.84375 8.84375  Q 19.1875 6.0625 25.203125 6.0625  Q 31.25 6.0625 34.171875 8.515625  Q 37.109375 10.984375 37.109375 14.3125  Q 37.109375 17.28125 34.515625 19  Q 32.71875 20.171875 25.53125 21.96875  Q 15.875 24.421875 12.140625 26.203125  Q 8.40625 27.984375 6.46875 31.125  Q 4.546875 34.28125 4.546875 38.09375  Q 4.546875 41.546875 6.125 44.5  Q 7.71875 47.46875 10.453125 49.421875  Q 12.5 50.921875 16.03125 51.96875  Q 19.578125 53.03125 23.640625 53.03125  Q 29.734375 53.03125 34.34375 51.265625  Q 38.96875 49.515625 41.15625 46.5  Q 43.359375 43.5 44.1875 38.484375  L 35.59375 37.3125  Q 35.015625 41.3125 32.203125 43.546875  Q 29.390625 45.796875 24.265625 45.796875  Q 18.21875 45.796875 15.625 43.796875  Q 13.03125 41.796875 13.03125 39.109375  Q 13.03125 37.40625 14.109375 36.03125  Q 15.1875 34.625 17.484375 33.6875  Q 18.796875 33.203125 25.25 31.453125  Q 34.578125 28.953125 38.25 27.359375  Q 41.9375 25.78125 44.03125 22.75  Q 46.140625 19.734375 46.140625 15.234375  Q 46.140625 10.84375 43.578125 6.953125  Q 41.015625 3.078125 36.171875 0.953125  Q 31.34375 -1.171875 25.25 -1.171875  Q 15.140625 -1.171875 9.84375 3.03125  Q 4.546875 7.234375 3.078125 15.484375  z " id="ArialMT-115" />
     </defs>
     <use xlink:href="#ArialMT-66" />
     <use x="66.699219" xlink:href="#ArialMT-117" />
     <use x="122.314453" xlink:href="#ArialMT-109" />
     <use x="205.615234" xlink:href="#ArialMT-112" />
     <use x="261.230469" xlink:href="#ArialMT-115" />
    </g>
   </g>
  </g>
 </g>
</svg></g>

<g id="edge2" class="edge">
<title>node0-&gt;leaf2</title>
<path fill="none" stroke="#444443" stroke-width="0.3" d="M75.37,-157.99C79.59,-145.52 90.23,-114.13 99.35,-87.22" />
<polygon fill="#444443" stroke="#444443" stroke-width="0.3" points="100.72,-87.53 100.68,-83.29 98.07,-86.63 100.72,-87.53" />
<text text-anchor="start" x="98.5" y="-94.8" font-family="Times New Roman,serif" font-size="14.00">&gt;</text>
</g>


<g id="node4" class="node">
<title>legend</title>
<polygon fill="none" stroke="black" stroke-width="0" points="210,-215 131,-215 131,-114 210,-114 210,-215" />
<svg height="97px" version="1.1" viewBox="0 0 99.617188 129.048437" width="75px" preserveAspectRatio="xMinYMin meet" x="133.5" y="-212.5">
 <metadata>
  <rdf:RDF>
   <ns2:Work>
    <dc:type rdf:resource="http://purl.org/dc/dcmitype/StillImage" />
    <dc:date>2021-08-11T21:22:22.511182</dc:date>
    <dc:format>image/svg+xml</dc:format>
    <dc:creator>
     <ns2:Agent>
      <dc:title>Matplotlib v3.3.2, https://matplotlib.org/</dc:title>
     </ns2:Agent>
    </dc:creator>
   </ns2:Work>
  </rdf:RDF>
 </metadata>
 <defs>
  <style type="text/css">*{stroke-linecap:butt;stroke-linejoin:round;}</style>
 </defs>
 <g id="figure_1">
  <g id="patch_1">
   <path d="M 0 129.048437  L 99.617188 129.048437  L 99.617188 0  L 0 0  z " style="fill:#ffffff;" />
  </g>
  <g id="axes_1">
   <g id="legend_1">
    <g id="patch_2">
     <path d="M 2.4 129.048437  L 97.217187 129.048437  Q 99.617188 129.048437 99.617188 126.648437  L 99.617188 2.4  Q 99.617188 0 97.217187 0  L 2.4 0  Q 0 0 0 2.4  L 0 126.648437  Q 0 129.048437 2.4 129.048437  z " style="fill:#e5e5e5;opacity:0.8;stroke:#444443;stroke-linejoin:miter;stroke-width:0.5;" />
    </g>
    <g id="patch_3">
     <path d="M 9.6 18  L 33.6 18  L 33.6 9.6  L 9.6 9.6  z " style="fill:#440154;stroke:#444443;stroke-linejoin:miter;stroke-width:0.4;" />
    </g>
    <g id="text_1">
     
     <g style="fill:#444443;" transform="translate(37.8 18)scale(0.1 -0.1)">
      <defs>
       <path d="M 20.515625 31  L 20.515625 11.71875  Q 20.515625 5.46875 21.875 3.953125  Q 23.734375 1.8125 27.484375 1.8125  L 30.03125 1.8125  L 30.03125 0  L 1.65625 0  L 1.65625 1.8125  L 4.15625 1.8125  Q 8.34375 1.8125 10.15625 4.546875  Q 11.140625 6.0625 11.140625 11.71875  L 11.140625 54.5  Q 11.140625 60.75 9.8125 62.25  Q 7.90625 64.40625 4.15625 64.40625  L 1.65625 64.40625  L 1.65625 66.21875  L 25.921875 66.21875  Q 34.8125 66.21875 39.9375 64.375  Q 45.0625 62.546875 48.578125 58.203125  Q 52.09375 53.859375 52.09375 47.90625  Q 52.09375 39.796875 46.75 34.71875  Q 41.40625 29.640625 31.640625 29.640625  Q 29.25 29.640625 26.46875 29.984375  Q 23.6875 30.328125 20.515625 31  z M 20.515625 33.796875  Q 23.09375 33.296875 25.09375 33.046875  Q 27.09375 32.8125 28.515625 32.8125  Q 33.59375 32.8125 37.28125 36.734375  Q 40.96875 40.671875 40.96875 46.921875  Q 40.96875 51.21875 39.203125 54.90625  Q 37.453125 58.59375 34.21875 60.421875  Q 31 62.25 26.90625 62.25  Q 24.421875 62.25 20.515625 61.328125  z " id="TimesNewRomanPSMT-80" />
       <path d="M 28.46875 6.453125  Q 21.578125 1.125 19.828125 0.296875  Q 17.1875 -0.921875 14.203125 -0.921875  Q 9.578125 -0.921875 6.5625 2.25  Q 3.5625 5.421875 3.5625 10.59375  Q 3.5625 13.875 5.03125 16.265625  Q 7.03125 19.578125 11.984375 22.5  Q 16.9375 25.4375 28.46875 29.640625  L 28.46875 31.390625  Q 28.46875 38.09375 26.34375 40.578125  Q 24.21875 43.0625 20.171875 43.0625  Q 17.09375 43.0625 15.28125 41.40625  Q 13.421875 39.75 13.421875 37.59375  L 13.53125 34.765625  Q 13.53125 32.515625 12.375 31.296875  Q 11.234375 30.078125 9.375 30.078125  Q 7.5625 30.078125 6.421875 31.34375  Q 5.28125 32.625 5.28125 34.8125  Q 5.28125 39.015625 9.578125 42.53125  Q 13.875 46.046875 21.625 46.046875  Q 27.59375 46.046875 31.390625 44.046875  Q 34.28125 42.53125 35.640625 39.3125  Q 36.53125 37.203125 36.53125 30.71875  L 36.53125 15.53125  Q 36.53125 9.125 36.765625 7.6875  Q 37.015625 6.25 37.578125 5.765625  Q 38.140625 5.28125 38.875 5.28125  Q 39.65625 5.28125 40.234375 5.609375  Q 41.265625 6.25 44.1875 9.1875  L 44.1875 6.453125  Q 38.71875 -0.875 33.734375 -0.875  Q 31.34375 -0.875 29.921875 0.78125  Q 28.515625 2.4375 28.46875 6.453125  z M 28.46875 9.625  L 28.46875 26.65625  Q 21.09375 23.734375 18.953125 22.515625  Q 15.09375 20.359375 13.421875 18.015625  Q 11.765625 15.671875 11.765625 12.890625  Q 11.765625 9.375 13.859375 7.046875  Q 15.96875 4.734375 18.703125 4.734375  Q 22.40625 4.734375 28.46875 9.625  z " id="TimesNewRomanPSMT-97" />
       <path d="M 32.03125 46.046875  L 32.03125 30.8125  L 30.421875 30.8125  Q 28.5625 37.984375 25.65625 40.578125  Q 22.75 43.171875 18.265625 43.171875  Q 14.84375 43.171875 12.734375 41.359375  Q 10.640625 39.546875 10.640625 37.359375  Q 10.640625 34.625 12.203125 32.671875  Q 13.71875 30.671875 18.359375 28.421875  L 25.484375 24.953125  Q 35.40625 20.125 35.40625 12.203125  Q 35.40625 6.109375 30.78125 2.359375  Q 26.171875 -1.375 20.453125 -1.375  Q 16.359375 -1.375 11.078125 0.09375  Q 9.46875 0.59375 8.453125 0.59375  Q 7.328125 0.59375 6.6875 -0.6875  L 5.078125 -0.6875  L 5.078125 15.28125  L 6.6875 15.28125  Q 8.0625 8.453125 11.90625 4.984375  Q 15.765625 1.515625 20.5625 1.515625  Q 23.921875 1.515625 26.046875 3.484375  Q 28.171875 5.46875 28.171875 8.25  Q 28.171875 11.625 25.796875 13.921875  Q 23.4375 16.21875 16.359375 19.734375  Q 9.28125 23.25 7.078125 26.078125  Q 4.890625 28.859375 4.890625 33.109375  Q 4.890625 38.625 8.671875 42.328125  Q 12.453125 46.046875 18.453125 46.046875  Q 21.09375 46.046875 24.859375 44.921875  Q 27.34375 44.1875 28.171875 44.1875  Q 28.953125 44.1875 29.390625 44.53125  Q 29.828125 44.875 30.421875 46.046875  z " id="TimesNewRomanPSMT-115" />
       <path d="M 16.109375 59.421875  L 16.109375 44.734375  L 26.5625 44.734375  L 26.5625 41.3125  L 16.109375 41.3125  L 16.109375 12.3125  Q 16.109375 7.953125 17.359375 6.4375  Q 18.609375 4.9375 20.5625 4.9375  Q 22.171875 4.9375 23.6875 5.9375  Q 25.203125 6.9375 26.03125 8.890625  L 27.9375 8.890625  Q 26.21875 4.109375 23.09375 1.6875  Q 19.96875 -0.734375 16.65625 -0.734375  Q 14.40625 -0.734375 12.25 0.515625  Q 10.109375 1.765625 9.078125 4.078125  Q 8.0625 6.390625 8.0625 11.234375  L 8.0625 41.3125  L 0.984375 41.3125  L 0.984375 42.921875  Q 3.65625 44 6.46875 46.5625  Q 9.28125 49.125 11.46875 52.640625  Q 12.59375 54.5 14.59375 59.421875  z " id="TimesNewRomanPSMT-116" />
       <path d="M 16.21875 46.046875  L 16.21875 35.984375  Q 21.828125 46.046875 27.734375 46.046875  Q 30.421875 46.046875 32.171875 44.40625  Q 33.9375 42.78125 33.9375 40.625  Q 33.9375 38.71875 32.65625 37.390625  Q 31.390625 36.078125 29.640625 36.078125  Q 27.9375 36.078125 25.8125 37.765625  Q 23.6875 39.453125 22.65625 39.453125  Q 21.78125 39.453125 20.75 38.484375  Q 18.5625 36.46875 16.21875 31.890625  L 16.21875 10.453125  Q 16.21875 6.734375 17.140625 4.828125  Q 17.78125 3.515625 19.390625 2.640625  Q 21 1.765625 24.03125 1.765625  L 24.03125 0  L 1.125 0  L 1.125 1.765625  Q 4.546875 1.765625 6.203125 2.828125  Q 7.421875 3.609375 7.90625 5.328125  Q 8.15625 6.15625 8.15625 10.0625  L 8.15625 27.390625  Q 8.15625 35.203125 7.828125 36.6875  Q 7.515625 38.1875 6.65625 38.859375  Q 5.8125 39.546875 4.546875 39.546875  Q 3.03125 39.546875 1.125 38.8125  L 0.640625 40.578125  L 14.15625 46.046875  z " id="TimesNewRomanPSMT-114" />
       <path d="M 0.59375 44.734375  L 21.4375 44.734375  L 21.4375 42.921875  L 20.40625 42.921875  Q 18.21875 42.921875 17.109375 41.96875  Q 16.015625 41.015625 16.015625 39.59375  Q 16.015625 37.703125 17.625 34.328125  L 28.515625 11.765625  L 38.53125 36.46875  Q 39.359375 38.484375 39.359375 40.4375  Q 39.359375 41.3125 39.015625 41.75  Q 38.625 42.28125 37.796875 42.59375  Q 36.96875 42.921875 34.859375 42.921875  L 34.859375 44.734375  L 49.421875 44.734375  L 49.421875 42.921875  Q 47.609375 42.71875 46.625 42.125  Q 45.65625 41.546875 44.484375 39.9375  Q 44.046875 39.265625 42.828125 36.1875  L 24.609375 -8.453125  Q 21.96875 -14.9375 17.6875 -18.25  Q 13.421875 -21.578125 9.46875 -21.578125  Q 6.59375 -21.578125 4.734375 -19.921875  Q 2.875 -18.265625 2.875 -16.109375  Q 2.875 -14.0625 4.21875 -12.8125  Q 5.5625 -11.578125 7.90625 -11.578125  Q 9.515625 -11.578125 12.3125 -12.640625  Q 14.265625 -13.375 14.75 -13.375  Q 16.21875 -13.375 17.9375 -11.859375  Q 19.671875 -10.359375 21.4375 -6  L 24.609375 1.765625  L 8.546875 35.5  Q 7.8125 37.015625 6.203125 39.265625  Q 4.984375 40.96875 4.203125 41.546875  Q 3.078125 42.328125 0.59375 42.921875  z " id="TimesNewRomanPSMT-121" />
      </defs>
      <use xlink:href="#TimesNewRomanPSMT-80" />
      <use x="55.615234" xlink:href="#TimesNewRomanPSMT-97" />
      <use x="100" xlink:href="#TimesNewRomanPSMT-115" />
      <use x="138.916016" xlink:href="#TimesNewRomanPSMT-116" />
      <use x="166.699219" xlink:href="#TimesNewRomanPSMT-114" />
      <use x="200" xlink:href="#TimesNewRomanPSMT-121" />
     </g>
    </g>
    <g id="patch_4">
     <path d="M 9.6 34.557812  L 33.6 34.557812  L 33.6 26.157812  L 9.6 26.157812  z " style="fill:#21918c;stroke:#444443;stroke-linejoin:miter;stroke-width:0.4;" />
    </g>
    <g id="text_2">
     
     <g style="fill:#444443;" transform="translate(37.8 34.557812)scale(0.1 -0.1)">
      <defs>
       <path d="M 57.515625 66.21875  L 14.015625 4  L 41.15625 4  Q 47.40625 4 50.75 6.734375  Q 54.109375 9.46875 56.6875 17.828125  L 58.296875 17.53125  L 55.171875 0  L 1.265625 0  L 1.265625 1.8125  L 43.75 62.25  L 22.5625 62.25  Q 17.28125 62.25 14.90625 61.109375  Q 12.546875 59.96875 11.296875 57.78125  Q 10.0625 55.609375 9.03125 49.65625  L 7.171875 49.65625  L 8.546875 66.21875  z " id="TimesNewRomanPSMT-90" />
       <path d="M 50.875 -21.578125  L -0.828125 -21.578125  L -0.828125 -17.484375  L 50.875 -17.484375  z " id="TimesNewRomanPSMT-95" />
       <path d="M 45.84375 67.71875  L 45.84375 44.828125  L 44.046875 44.828125  Q 43.171875 51.421875 40.890625 55.328125  Q 38.625 59.234375 34.421875 61.515625  Q 30.21875 63.8125 25.734375 63.8125  Q 20.65625 63.8125 17.328125 60.71875  Q 14.015625 57.625 14.015625 53.65625  Q 14.015625 50.640625 16.109375 48.140625  Q 19.140625 44.484375 30.515625 38.375  Q 39.796875 33.40625 43.1875 30.734375  Q 46.578125 28.078125 48.40625 24.453125  Q 50.25 20.84375 50.25 16.890625  Q 50.25 9.375 44.40625 3.921875  Q 38.578125 -1.515625 29.390625 -1.515625  Q 26.515625 -1.515625 23.96875 -1.078125  Q 22.46875 -0.828125 17.703125 0.703125  Q 12.9375 2.25 11.671875 2.25  Q 10.453125 2.25 9.734375 1.515625  Q 9.03125 0.78125 8.6875 -1.515625  L 6.890625 -1.515625  L 6.890625 21.1875  L 8.6875 21.1875  Q 9.96875 14.0625 12.109375 10.515625  Q 14.265625 6.984375 18.671875 4.640625  Q 23.09375 2.296875 28.375 2.296875  Q 34.46875 2.296875 38 5.515625  Q 41.546875 8.734375 41.546875 13.140625  Q 41.546875 15.578125 40.203125 18.0625  Q 38.875 20.5625 36.03125 22.703125  Q 34.125 24.171875 25.625 28.921875  Q 17.140625 33.6875 13.546875 36.515625  Q 9.96875 39.359375 8.109375 42.765625  Q 6.25 46.1875 6.25 50.296875  Q 6.25 57.421875 11.71875 62.5625  Q 17.1875 67.71875 25.640625 67.71875  Q 30.90625 67.71875 36.8125 65.140625  Q 39.546875 63.921875 40.671875 63.921875  Q 41.9375 63.921875 42.75 64.671875  Q 43.5625 65.4375 44.046875 67.71875  z " id="TimesNewRomanPSMT-83" />
       <path d="M 41.109375 17  Q 39.3125 8.15625 34.03125 3.390625  Q 28.765625 -1.375 22.359375 -1.375  Q 14.75 -1.375 9.078125 5.015625  Q 3.421875 11.421875 3.421875 22.3125  Q 3.421875 32.859375 9.6875 39.453125  Q 15.96875 46.046875 24.75 46.046875  Q 31.34375 46.046875 35.59375 42.546875  Q 39.84375 39.0625 39.84375 35.296875  Q 39.84375 33.453125 38.640625 32.296875  Q 37.453125 31.15625 35.296875 31.15625  Q 32.421875 31.15625 30.953125 33.015625  Q 30.125 34.03125 29.859375 36.90625  Q 29.59375 39.796875 27.875 41.3125  Q 26.171875 42.78125 23.140625 42.78125  Q 18.265625 42.78125 15.28125 39.15625  Q 11.328125 34.375 11.328125 26.515625  Q 11.328125 18.5 15.25 12.375  Q 19.1875 6.25 25.875 6.25  Q 30.671875 6.25 34.46875 9.515625  Q 37.15625 11.765625 39.703125 17.671875  z " id="TimesNewRomanPSMT-99" />
       <path d="M 16.265625 69.4375  L 16.265625 36.71875  Q 21.6875 42.671875 24.859375 44.359375  Q 28.03125 46.046875 31.203125 46.046875  Q 35.015625 46.046875 37.75 43.9375  Q 40.484375 41.84375 41.796875 37.359375  Q 42.71875 34.234375 42.71875 25.921875  L 42.71875 10.109375  Q 42.71875 5.859375 43.40625 4.296875  Q 43.890625 3.125 45.0625 2.4375  Q 46.234375 1.765625 49.359375 1.765625  L 49.359375 0  L 27.390625 0  L 27.390625 1.765625  L 28.421875 1.765625  Q 31.546875 1.765625 32.765625 2.703125  Q 33.984375 3.65625 34.46875 5.515625  Q 34.625 6.296875 34.625 10.109375  L 34.625 25.921875  Q 34.625 33.25 33.859375 35.546875  Q 33.109375 37.84375 31.4375 38.984375  Q 29.78125 40.140625 27.4375 40.140625  Q 25.046875 40.140625 22.453125 38.859375  Q 19.875 37.59375 16.265625 33.734375  L 16.265625 10.109375  Q 16.265625 5.515625 16.765625 4.390625  Q 17.28125 3.265625 18.671875 2.515625  Q 20.0625 1.765625 23.484375 1.765625  L 23.484375 0  L 1.3125 0  L 1.3125 1.765625  Q 4.296875 1.765625 6 2.6875  Q 6.984375 3.171875 7.5625 4.53125  Q 8.15625 5.90625 8.15625 10.109375  L 8.15625 50.59375  Q 8.15625 58.25 7.78125 60  Q 7.421875 61.765625 6.65625 62.390625  Q 5.90625 63.03125 4.640625 63.03125  Q 3.609375 63.03125 1.3125 62.25  L 0.640625 63.96875  L 14.015625 69.4375  z " id="TimesNewRomanPSMT-104" />
      </defs>
      <use xlink:href="#TimesNewRomanPSMT-90" />
      <use x="61.083984" xlink:href="#TimesNewRomanPSMT-95" />
      <use x="111.083984" xlink:href="#TimesNewRomanPSMT-83" />
      <use x="166.699219" xlink:href="#TimesNewRomanPSMT-99" />
      <use x="211.083984" xlink:href="#TimesNewRomanPSMT-114" />
      <use x="244.384766" xlink:href="#TimesNewRomanPSMT-97" />
      <use x="288.769531" xlink:href="#TimesNewRomanPSMT-116" />
      <use x="316.552734" xlink:href="#TimesNewRomanPSMT-99" />
      <use x="360.9375" xlink:href="#TimesNewRomanPSMT-104" />
     </g>
    </g>
    <g id="patch_5">
     <path d="M 9.6 51.115625  L 33.6 51.115625  L 33.6 42.715625  L 9.6 42.715625  z " style="fill:#fde725;stroke:#444443;stroke-linejoin:miter;stroke-width:0.4;" />
    </g>
    <g id="text_3">
     
     <g style="fill:#444443;" transform="translate(37.8 51.115625)scale(0.1 -0.1)">
      <defs>
       <path d="M 29.890625 36.71875  L 54.296875 12.453125  Q 60.296875 6.453125 64.546875 4.265625  Q 68.796875 2.09375 73.046875 1.8125  L 73.046875 0  L 41.546875 0  L 41.546875 1.8125  Q 44.390625 1.8125 45.625 2.765625  Q 46.875 3.71875 46.875 4.890625  Q 46.875 6.0625 46.40625 6.984375  Q 45.953125 7.90625 43.359375 10.453125  L 20.515625 33.0625  L 20.515625 11.71875  Q 20.515625 6.6875 21.140625 5.078125  Q 21.625 3.859375 23.1875 2.984375  Q 25.296875 1.8125 27.640625 1.8125  L 29.890625 1.8125  L 29.890625 0  L 1.65625 0  L 1.65625 1.8125  L 4 1.8125  Q 8.109375 1.8125 9.96875 4.203125  Q 11.140625 5.765625 11.140625 11.71875  L 11.140625 54.5  Q 11.140625 59.515625 10.5 61.1875  Q 10.015625 62.359375 8.5 63.234375  Q 6.34375 64.40625 4 64.40625  L 1.65625 64.40625  L 1.65625 66.21875  L 29.890625 66.21875  L 29.890625 64.40625  L 27.640625 64.40625  Q 25.34375 64.40625 23.1875 63.28125  Q 21.6875 62.5 21.09375 60.9375  Q 20.515625 59.375 20.515625 54.5  L 20.515625 34.234375  Q 21.484375 35.15625 27.203125 40.4375  Q 41.703125 53.71875 44.734375 58.15625  Q 46.046875 60.109375 46.046875 61.578125  Q 46.046875 62.703125 45.015625 63.546875  Q 44 64.40625 41.546875 64.40625  L 40.046875 64.40625  L 40.046875 66.21875  L 64.359375 66.21875  L 64.359375 64.40625  Q 62.203125 64.359375 60.4375 63.8125  Q 58.6875 63.28125 56.140625 61.734375  Q 53.609375 60.203125 49.90625 56.78125  Q 48.828125 55.8125 39.984375 46.78125  z " id="TimesNewRomanPSMT-75" />
      </defs>
      <use xlink:href="#TimesNewRomanPSMT-75" />
      <use x="72.216797" xlink:href="#TimesNewRomanPSMT-95" />
      <use x="122.216797" xlink:href="#TimesNewRomanPSMT-83" />
      <use x="177.832031" xlink:href="#TimesNewRomanPSMT-99" />
      <use x="222.216797" xlink:href="#TimesNewRomanPSMT-97" />
      <use x="266.601562" xlink:href="#TimesNewRomanPSMT-116" />
      <use x="294.384766" xlink:href="#TimesNewRomanPSMT-99" />
      <use x="338.769531" xlink:href="#TimesNewRomanPSMT-104" />
     </g>
    </g>
    <g id="patch_6">
     <path d="M 9.6 67.673437  L 33.6 67.673437  L 33.6 59.273437  L 9.6 59.273437  z " style="fill:#5ec962;stroke:#444443;stroke-linejoin:miter;stroke-width:0.4;" />
    </g>
    <g id="text_4">
     
     <g style="fill:#444443;" transform="translate(37.8 67.673437)scale(0.1 -0.1)">
      <defs>
       <path d="M 14.5 69.4375  Q 16.546875 69.4375 17.984375 67.984375  Q 19.4375 66.546875 19.4375 64.5  Q 19.4375 62.453125 17.984375 60.984375  Q 16.546875 59.515625 14.5 59.515625  Q 12.453125 59.515625 10.984375 60.984375  Q 9.515625 62.453125 9.515625 64.5  Q 9.515625 66.546875 10.953125 67.984375  Q 12.40625 69.4375 14.5 69.4375  z M 18.5625 46.046875  L 18.5625 10.109375  Q 18.5625 5.90625 19.171875 4.515625  Q 19.78125 3.125 20.96875 2.4375  Q 22.171875 1.765625 25.34375 1.765625  L 25.34375 0  L 3.609375 0  L 3.609375 1.765625  Q 6.890625 1.765625 8 2.390625  Q 9.125 3.03125 9.78125 4.484375  Q 10.453125 5.953125 10.453125 10.109375  L 10.453125 27.34375  Q 10.453125 34.625 10.015625 36.765625  Q 9.671875 38.328125 8.9375 38.9375  Q 8.203125 39.546875 6.9375 39.546875  Q 5.5625 39.546875 3.609375 38.8125  L 2.9375 40.578125  L 16.40625 46.046875  z " id="TimesNewRomanPSMT-105" />
       <path d="M 16.15625 36.578125  Q 24.03125 46.046875 31.15625 46.046875  Q 34.8125 46.046875 37.453125 44.21875  Q 40.09375 42.390625 41.65625 38.1875  Q 42.71875 35.25 42.71875 29.203125  L 42.71875 10.109375  Q 42.71875 5.859375 43.40625 4.34375  Q 43.953125 3.125 45.140625 2.4375  Q 46.34375 1.765625 49.5625 1.765625  L 49.5625 0  L 27.4375 0  L 27.4375 1.765625  L 28.375 1.765625  Q 31.5 1.765625 32.734375 2.703125  Q 33.984375 3.65625 34.46875 5.515625  Q 34.671875 6.25 34.671875 10.109375  L 34.671875 28.421875  Q 34.671875 34.515625 33.078125 37.28125  Q 31.5 40.046875 27.734375 40.046875  Q 21.921875 40.046875 16.15625 33.6875  L 16.15625 10.109375  Q 16.15625 5.5625 16.703125 4.5  Q 17.390625 3.078125 18.578125 2.421875  Q 19.78125 1.765625 23.4375 1.765625  L 23.4375 0  L 1.3125 0  L 1.3125 1.765625  L 2.296875 1.765625  Q 5.71875 1.765625 6.90625 3.484375  Q 8.109375 5.21875 8.109375 10.109375  L 8.109375 26.703125  Q 8.109375 34.765625 7.734375 36.515625  Q 7.375 38.28125 6.609375 38.90625  Q 5.859375 39.546875 4.59375 39.546875  Q 3.21875 39.546875 1.3125 38.8125  L 0.59375 40.578125  L 14.0625 46.046875  L 16.15625 46.046875  z " id="TimesNewRomanPSMT-110" />
      </defs>
      <use xlink:href="#TimesNewRomanPSMT-83" />
      <use x="55.615234" xlink:href="#TimesNewRomanPSMT-116" />
      <use x="83.398438" xlink:href="#TimesNewRomanPSMT-97" />
      <use x="127.783203" xlink:href="#TimesNewRomanPSMT-105" />
      <use x="155.566406" xlink:href="#TimesNewRomanPSMT-110" />
      <use x="205.566406" xlink:href="#TimesNewRomanPSMT-115" />
     </g>
    </g>
    <g id="patch_7">
     <path d="M 9.6 84.2125  L 33.6 84.2125  L 33.6 75.8125  L 9.6 75.8125  z " style="fill:#ffbaab;stroke:#444443;stroke-linejoin:miter;stroke-width:0.4;" />
    </g>
    <g id="text_5">
     
     <g style="fill:#444443;" transform="translate(37.8 84.2125)scale(0.1 -0.1)">
      <defs>
       <path d="M 1.703125 0  L 1.703125 1.8125  L 4.203125 1.8125  Q 8.40625 1.8125 10.15625 4.5  Q 11.234375 6.109375 11.234375 11.71875  L 11.234375 54.5  Q 11.234375 60.6875 9.859375 62.25  Q 7.953125 64.40625 4.203125 64.40625  L 1.703125 64.40625  L 1.703125 66.21875  L 28.65625 66.21875  Q 43.5 66.21875 51.234375 62.84375  Q 58.984375 59.46875 63.6875 51.609375  Q 68.40625 43.75 68.40625 33.453125  Q 68.40625 19.625 60.015625 10.359375  Q 50.59375 0 31.296875 0  z M 20.609375 4.78125  Q 26.8125 3.421875 31 3.421875  Q 42.328125 3.421875 49.796875 11.375  Q 57.28125 19.34375 57.28125 32.953125  Q 57.28125 46.6875 49.796875 54.59375  Q 42.328125 62.5 30.609375 62.5  Q 26.21875 62.5 20.609375 61.078125  z " id="TimesNewRomanPSMT-68" />
       <path d="M 10.640625 27.875  Q 10.59375 17.921875 15.484375 12.25  Q 20.359375 6.59375 26.953125 6.59375  Q 31.34375 6.59375 34.59375 9  Q 37.84375 11.421875 40.046875 17.28125  L 41.546875 16.3125  Q 40.53125 9.625 35.59375 4.125  Q 30.671875 -1.375 23.25 -1.375  Q 15.1875 -1.375 9.453125 4.90625  Q 3.71875 11.1875 3.71875 21.78125  Q 3.71875 33.25 9.59375 39.671875  Q 15.484375 46.09375 24.359375 46.09375  Q 31.890625 46.09375 36.71875 41.140625  Q 41.546875 36.1875 41.546875 27.875  z M 10.640625 30.71875  L 31.34375 30.71875  Q 31.109375 35.015625 30.328125 36.765625  Q 29.109375 39.5 26.6875 41.0625  Q 24.265625 42.625 21.625 42.625  Q 17.578125 42.625 14.375 39.46875  Q 11.1875 36.328125 10.640625 30.71875  z " id="TimesNewRomanPSMT-101" />
      </defs>
      <use xlink:href="#TimesNewRomanPSMT-68" />
      <use x="72.216797" xlink:href="#TimesNewRomanPSMT-105" />
      <use x="100" xlink:href="#TimesNewRomanPSMT-114" />
      <use x="133.300781" xlink:href="#TimesNewRomanPSMT-116" />
      <use x="161.083984" xlink:href="#TimesNewRomanPSMT-105" />
      <use x="188.867188" xlink:href="#TimesNewRomanPSMT-110" />
      <use x="238.867188" xlink:href="#TimesNewRomanPSMT-101" />
      <use x="283.251953" xlink:href="#TimesNewRomanPSMT-115" />
      <use x="322.167969" xlink:href="#TimesNewRomanPSMT-115" />
     </g>
    </g>
    <g id="patch_8">
     <path d="M 9.6 100.751562  L 33.6 100.751562  L 33.6 92.351562  L 9.6 92.351562  z " style="fill:#ff0000;stroke:#444443;stroke-linejoin:miter;stroke-width:0.4;" />
    </g>
    <g id="text_6">
     
     <g style="fill:#444443;" transform="translate(37.8 100.751562)scale(0.1 -0.1)">
      <defs>
       <path d="M 46.1875 33.796875  Q 53.078125 32.328125 56.5 29.109375  Q 61.234375 24.609375 61.234375 18.109375  Q 61.234375 13.1875 58.109375 8.671875  Q 54.984375 4.15625 49.53125 2.078125  Q 44.09375 0 32.90625 0  L 1.65625 0  L 1.65625 1.8125  L 4.15625 1.8125  Q 8.296875 1.8125 10.109375 4.4375  Q 11.234375 6.15625 11.234375 11.71875  L 11.234375 54.5  Q 11.234375 60.640625 9.8125 62.25  Q 7.90625 64.40625 4.15625 64.40625  L 1.65625 64.40625  L 1.65625 66.21875  L 30.28125 66.21875  Q 38.28125 66.21875 43.109375 65.046875  Q 50.4375 63.28125 54.296875 58.8125  Q 58.15625 54.34375 58.15625 48.53125  Q 58.15625 43.5625 55.125 39.625  Q 52.09375 35.6875 46.1875 33.796875  z M 20.609375 36.421875  Q 22.40625 36.078125 24.71875 35.90625  Q 27.046875 35.75 29.828125 35.75  Q 36.96875 35.75 40.546875 37.28125  Q 44.140625 38.8125 46.046875 41.984375  Q 47.953125 45.171875 47.953125 48.921875  Q 47.953125 54.734375 43.21875 58.828125  Q 38.484375 62.9375 29.390625 62.9375  Q 24.515625 62.9375 20.609375 61.859375  z M 20.609375 4.78125  Q 26.265625 3.46875 31.78125 3.46875  Q 40.625 3.46875 45.265625 7.4375  Q 49.90625 11.421875 49.90625 17.28125  Q 49.90625 21.140625 47.796875 24.703125  Q 45.703125 28.265625 40.96875 30.3125  Q 36.234375 32.375 29.25 32.375  Q 26.21875 32.375 24.0625 32.265625  Q 21.921875 32.171875 20.609375 31.9375  z " id="TimesNewRomanPSMT-66" />
       <path d="M 42.328125 44.734375  L 42.328125 17.625  Q 42.328125 9.859375 42.6875 8.125  Q 43.0625 6.390625 43.859375 5.703125  Q 44.671875 5.03125 45.75 5.03125  Q 47.265625 5.03125 49.171875 5.859375  L 49.859375 4.15625  L 36.46875 -1.375  L 34.28125 -1.375  L 34.28125 8.109375  Q 28.515625 1.859375 25.484375 0.234375  Q 22.46875 -1.375 19.09375 -1.375  Q 15.328125 -1.375 12.5625 0.796875  Q 9.8125 2.984375 8.734375 6.390625  Q 7.671875 9.8125 7.671875 16.0625  L 7.671875 36.03125  Q 7.671875 39.203125 6.984375 40.421875  Q 6.296875 41.65625 4.953125 42.3125  Q 3.609375 42.96875 0.09375 42.921875  L 0.09375 44.734375  L 15.765625 44.734375  L 15.765625 14.796875  Q 15.765625 8.546875 17.9375 6.59375  Q 20.125 4.640625 23.1875 4.640625  Q 25.296875 4.640625 27.953125 5.953125  Q 30.609375 7.28125 34.28125 10.984375  L 34.28125 36.328125  Q 34.28125 40.140625 32.890625 41.484375  Q 31.5 42.828125 27.09375 42.921875  L 27.09375 44.734375  z " id="TimesNewRomanPSMT-117" />
       <path d="M 16.40625 36.53125  Q 21.296875 41.40625 22.171875 42.140625  Q 24.359375 44 26.890625 45.015625  Q 29.4375 46.046875 31.9375 46.046875  Q 36.140625 46.046875 39.15625 43.59375  Q 42.1875 41.15625 43.21875 36.53125  Q 48.25 42.390625 51.703125 44.21875  Q 55.171875 46.046875 58.84375 46.046875  Q 62.40625 46.046875 65.15625 44.21875  Q 67.921875 42.390625 69.53125 38.234375  Q 70.609375 35.40625 70.609375 29.34375  L 70.609375 10.109375  Q 70.609375 5.90625 71.234375 4.34375  Q 71.734375 3.265625 73.046875 2.515625  Q 74.359375 1.765625 77.34375 1.765625  L 77.34375 0  L 55.28125 0  L 55.28125 1.765625  L 56.203125 1.765625  Q 59.078125 1.765625 60.6875 2.875  Q 61.8125 3.65625 62.3125 5.375  Q 62.5 6.203125 62.5 10.109375  L 62.5 29.34375  Q 62.5 34.8125 61.1875 37.0625  Q 59.28125 40.1875 55.078125 40.1875  Q 52.484375 40.1875 49.875 38.890625  Q 47.265625 37.59375 43.5625 34.078125  L 43.453125 33.546875  L 43.5625 31.453125  L 43.5625 10.109375  Q 43.5625 5.515625 44.0625 4.390625  Q 44.578125 3.265625 45.984375 2.515625  Q 47.40625 1.765625 50.828125 1.765625  L 50.828125 0  L 28.21875 0  L 28.21875 1.765625  Q 31.9375 1.765625 33.328125 2.640625  Q 34.71875 3.515625 35.25 5.28125  Q 35.5 6.109375 35.5 10.109375  L 35.5 29.34375  Q 35.5 34.8125 33.890625 37.203125  Q 31.734375 40.328125 27.875 40.328125  Q 25.25 40.328125 22.65625 38.921875  Q 18.609375 36.765625 16.40625 34.078125  L 16.40625 10.109375  Q 16.40625 5.71875 17.015625 4.390625  Q 17.625 3.078125 18.8125 2.421875  Q 20.015625 1.765625 23.6875 1.765625  L 23.6875 0  L 1.5625 0  L 1.5625 1.765625  Q 4.640625 1.765625 5.859375 2.421875  Q 7.078125 3.078125 7.703125 4.515625  Q 8.34375 5.953125 8.34375 10.109375  L 8.34375 27.203125  Q 8.34375 34.578125 7.90625 36.71875  Q 7.5625 38.328125 6.828125 38.9375  Q 6.109375 39.546875 4.828125 39.546875  Q 3.46875 39.546875 1.5625 38.8125  L 0.828125 40.578125  L 14.3125 46.046875  L 16.40625 46.046875  z " id="TimesNewRomanPSMT-109" />
       <path d="M -0.09375 40.28125  L 13.671875 45.84375  L 15.53125 45.84375  L 15.53125 35.40625  Q 19 41.3125 22.484375 43.671875  Q 25.984375 46.046875 29.828125 46.046875  Q 36.578125 46.046875 41.0625 40.765625  Q 46.578125 34.328125 46.578125 23.96875  Q 46.578125 12.40625 39.9375 4.828125  Q 34.46875 -1.375 26.171875 -1.375  Q 22.5625 -1.375 19.921875 -0.34375  Q 17.96875 0.390625 15.53125 2.59375  L 15.53125 -11.03125  Q 15.53125 -15.625 16.09375 -16.859375  Q 16.65625 -18.109375 18.046875 -18.84375  Q 19.4375 -19.578125 23.09375 -19.578125  L 23.09375 -21.390625  L -0.34375 -21.390625  L -0.34375 -19.578125  L 0.875 -19.578125  Q 3.5625 -19.625 5.46875 -18.5625  Q 6.390625 -18.015625 6.90625 -16.8125  Q 7.421875 -15.625 7.421875 -10.75  L 7.421875 31.546875  Q 7.421875 35.890625 7.03125 37.0625  Q 6.640625 38.234375 5.78125 38.8125  Q 4.9375 39.40625 3.46875 39.40625  Q 2.296875 39.40625 0.484375 38.71875  z M 15.53125 32.515625  L 15.53125 15.828125  Q 15.53125 10.40625 15.96875 8.6875  Q 16.65625 5.859375 19.3125 3.703125  Q 21.96875 1.5625 26.03125 1.5625  Q 30.90625 1.5625 33.9375 5.375  Q 37.890625 10.359375 37.890625 19.390625  Q 37.890625 29.640625 33.40625 35.15625  Q 30.28125 38.96875 25.984375 38.96875  Q 23.640625 38.96875 21.34375 37.796875  Q 19.578125 36.921875 15.53125 32.515625  z " id="TimesNewRomanPSMT-112" />
      </defs>
      <use xlink:href="#TimesNewRomanPSMT-66" />
      <use x="66.699219" xlink:href="#TimesNewRomanPSMT-117" />
      <use x="116.699219" xlink:href="#TimesNewRomanPSMT-109" />
      <use x="194.482422" xlink:href="#TimesNewRomanPSMT-112" />
      <use x="244.482422" xlink:href="#TimesNewRomanPSMT-115" />
     </g>
    </g>
    <g id="patch_9">
     <path d="M 9.6 117.290625  L 33.6 117.290625  L 33.6 108.890625  L 9.6 108.890625  z " style="fill:#f7f7f7;stroke:#444443;stroke-linejoin:miter;stroke-width:0.4;" />
    </g>
    <g id="text_7">
     
     <g style="fill:#444443;" transform="translate(37.8 117.290625)scale(0.1 -0.1)">
      <defs>
       <path d="M 36.578125 67.71875  Q 49.46875 67.71875 58.90625 57.921875  Q 68.359375 48.140625 68.359375 33.5  Q 68.359375 18.40625 58.828125 8.4375  Q 49.3125 -1.515625 35.796875 -1.515625  Q 22.125 -1.515625 12.8125 8.203125  Q 3.515625 17.921875 3.515625 33.34375  Q 3.515625 49.125 14.265625 59.078125  Q 23.578125 67.71875 36.578125 67.71875  z M 35.640625 64.15625  Q 26.765625 64.15625 21.390625 57.5625  Q 14.703125 49.359375 14.703125 33.546875  Q 14.703125 17.328125 21.625 8.59375  Q 26.953125 1.953125 35.6875 1.953125  Q 45.015625 1.953125 51.09375 9.21875  Q 57.171875 16.5 57.171875 32.171875  Q 57.171875 49.171875 50.484375 57.515625  Q 45.125 64.15625 35.640625 64.15625  z " id="TimesNewRomanPSMT-79" />
       <path d="M 20.453125 62.59375  L 20.453125 36.578125  L 32.515625 36.578125  Q 36.671875 36.578125 38.59375 38.40625  Q 40.53125 40.234375 41.15625 45.65625  L 42.96875 45.65625  L 42.96875 23.25  L 41.15625 23.25  Q 41.109375 27.09375 40.15625 28.90625  Q 39.203125 30.71875 37.515625 31.609375  Q 35.84375 32.515625 32.515625 32.515625  L 20.453125 32.515625  L 20.453125 11.71875  Q 20.453125 6.6875 21.09375 5.078125  Q 21.578125 3.859375 23.140625 2.984375  Q 25.296875 1.8125 27.640625 1.8125  L 30.03125 1.8125  L 30.03125 0  L 1.609375 0  L 1.609375 1.8125  L 3.953125 1.8125  Q 8.0625 1.8125 9.90625 4.203125  Q 11.078125 5.765625 11.078125 11.71875  L 11.078125 54.5  Q 11.078125 59.515625 10.453125 61.140625  Q 9.96875 62.359375 8.453125 63.234375  Q 6.34375 64.40625 3.953125 64.40625  L 1.609375 64.40625  L 1.609375 66.21875  L 50.875 66.21875  L 51.515625 51.65625  L 49.8125 51.65625  Q 48.53125 56.296875 46.84375 58.46875  Q 45.171875 60.640625 42.703125 61.609375  Q 40.234375 62.59375 35.0625 62.59375  z " id="TimesNewRomanPSMT-70" />
       <path d="M 18.5 69.4375  L 18.5 10.109375  Q 18.5 5.90625 19.109375 4.53125  Q 19.734375 3.171875 21 2.46875  Q 22.265625 1.765625 25.734375 1.765625  L 25.734375 0  L 3.8125 0  L 3.8125 1.765625  Q 6.890625 1.765625 8 2.390625  Q 9.125 3.03125 9.765625 4.484375  Q 10.40625 5.953125 10.40625 10.109375  L 10.40625 50.734375  Q 10.40625 58.296875 10.0625 60.03125  Q 9.71875 61.765625 8.953125 62.390625  Q 8.203125 63.03125 7.03125 63.03125  Q 5.765625 63.03125 3.8125 62.25  L 2.984375 63.96875  L 16.3125 69.4375  z " id="TimesNewRomanPSMT-108" />
      </defs>
      <use xlink:href="#TimesNewRomanPSMT-79" />
      <use x="72.216797" xlink:href="#TimesNewRomanPSMT-116" />
      <use x="100" xlink:href="#TimesNewRomanPSMT-104" />
      <use x="150" xlink:href="#TimesNewRomanPSMT-101" />
      <use x="194.384766" xlink:href="#TimesNewRomanPSMT-114" />
      <use x="227.685547" xlink:href="#TimesNewRomanPSMT-95" />
      <use x="277.685547" xlink:href="#TimesNewRomanPSMT-70" />
      <use x="333.300781" xlink:href="#TimesNewRomanPSMT-97" />
      <use x="377.685547" xlink:href="#TimesNewRomanPSMT-117" />
      <use x="427.685547" xlink:href="#TimesNewRomanPSMT-108" />
      <use x="455.46875" xlink:href="#TimesNewRomanPSMT-116" />
      <use x="483.251953" xlink:href="#TimesNewRomanPSMT-115" />
     </g>
    </g>
   </g>
  </g>
 </g>
</svg></g>
</g>
</svg>