<svg xmlns="http://www.w3.org/2000/svg" xmlns:dc="http://purl.org/dc/elements/1.1/" xmlns:ns2="http://creativecommons.org/ns#" xmlns:rdf="http://www.w3.org/1999/02/22-rdf-syntax-ns#" xmlns:xlink="http://www.w3.org/1999/xlink" width="183.0" height="206.0" viewBox="0.0 0.0 182.5 206.0">
<g id="graph0" class="graph" transform="scale(1.0 1.0) rotate(0) translate(4 202)">
<title>G</title>
<polygon fill="white" stroke="transparent" points="-4,4 -4,-202 178.5,-202 178.5,4 -4,4" />
<g id="clust2" class="cluster">
<title>cluster_legend</title>
</g>

<g id="node1" class="node">
<title>node0</title>
<text text-anchor="start" x="34" y="-148.9" font-family="Helvetica,sans-Serif" font-size="12.00" fill="#444443">feature1@0.22</text>
</g>

<g id="node2" class="node">
<title>leaf1</title>
<polygon fill="none" stroke="#444443" stroke-width="0" points="67,-83 0,-83 0,0 67,0 67,-83" />
<svg height="75px" version="1.1" viewBox="0 0 78.519989 99.410763" width="59px" preserveAspectRatio="xMinYMin meet" x="4.5" y="-78.5">
 <metadata>
  <rdf:RDF>
   <ns2:Work>
    <dc:type rdf:resource="http://purl.org/dc/dcmitype/StillImage" />
    <dc:date>2021-08-23T14:07:45.446826</dc:date>
    <dc:format>image/svg+xml</dc:format>
    <dc:creator>
     <ns2:Agent>
      <dc:title>Matplotlib v3.3.2, https://matplotlib.org/</dc:title>
     </ns2:Agent>
    </dc:creator>
   </ns2:Work>
  </rdf:RDF>
 </metadata>
 <defs>
  <style type="text/css">*{stroke-linecap:butt;stroke-linejoin:round;}</style>
 </defs>
 <g id="figure_1">
  <g id="patch_1">
   <path d="M 0 99.410763  L 78.519989 99.410763  L 78.519989 0  L 0 0  z " style="fill:#ffffff;" />
  </g>
  <g id="axes_1">
   <g id="patch_2">
    <path d="M 78.519989 39.259994  C 78.519989 39.259994 78.519989 39.259994 78.519989 39.259994  L 39.259989 39.259994  L 78.519989 39.259994  z " style="fill:#440154;stroke:#444443;stroke-linejoin:miter;stroke-width:0.5;" />
   </g>
   <g id="patch_3">
    <path d="M 78.519989 39.259994  C 78.519989 39.259994 78.519989 39.259994 78.519989 39.259994  L 39.259989 39.259994  L 78.519989 39.259994  z " style="fill:#21918c;stroke:#444443;stroke-linejoin:miter;stroke-width:0.5;" />
   </g>
   <g id="patch_4">
    <path d="M 78.519989 39.259994  C 78.519989 39.259994 78.519989 39.259994 78.519989 39.259994  L 39.259989 39.259994  L 78.519989 39.259994  z " style="fill:#fde725;stroke:#444443;stroke-linejoin:miter;stroke-width:0.5;" />
   </g>
   <g id="patch_5">
    <path d="M 78.519989 39.259994  C 78.519989 34.438279 77.631721 29.657561 75.899742 25.157652  C 74.167764 20.657743 71.621527 16.515163 68.388758 12.937715  C 65.155989 9.360267 61.29166 6.408784 56.989616 4.231321  C 52.687571 2.053858 48.020967 0.687442 43.223892 0.200615  C 38.426816 -0.286211 33.580844 0.11483 28.929059 1.383623  C 24.277275 2.652415 19.898782 4.767383 16.013217 7.622434  C 12.127652 10.477485 8.801088 14.024069 6.200394 18.084281  C 3.5997 22.144493 1.769101 26.649289 0.800423 31.372699  C -0.168255 36.096108 -0.258538 40.957809 0.534101 45.713927  C 1.326741 50.470045 2.988824 55.039701 5.436978 59.193672  C 7.885131 63.347644 11.077724 67.015291 14.854608 70.012636  C 18.631492 73.009982 22.928441 75.286055 27.529911 76.726684  C 32.131381 78.167313 36.959122 78.747999 41.770965 78.439614  C 46.582808 78.131228 51.296926 76.939016 55.676849 74.92278  C 60.056772 72.906544 64.028019 70.100571 67.391383 66.645615  C 70.754746 63.19066 73.453032 59.145473 75.350889 54.712971  L 39.259989 39.259994  L 78.519989 39.259994  z " style="fill:#5ec962;stroke:#444443;stroke-linejoin:miter;stroke-width:0.5;" />
   </g>
   <g id="patch_6">
    <path d="M 75.350889 54.712971  C 76.393696 52.277463 77.187299 49.74264 77.719554 47.147288  C 78.251809 44.551936 78.519989 41.90936 78.519989 39.259992  L 39.259989 39.259994  L 75.350889 54.712971  z " style="fill:#ffbaab;stroke:#444443;stroke-linejoin:miter;stroke-width:0.5;" />
   </g>
   <g id="text_1">
    
    <g style="fill:#444443;" transform="translate(26.62202 88.102825)scale(0.09 -0.09)">
     <defs>
      <path d="M 6.59375 0  L 6.59375 51.859375  L 14.5 51.859375  L 14.5 44.484375  Q 20.21875 53.03125 31 53.03125  Q 35.6875 53.03125 39.625 51.34375  Q 43.5625 49.65625 45.515625 46.921875  Q 47.46875 44.1875 48.25 40.4375  Q 48.734375 37.984375 48.734375 31.890625  L 48.734375 0  L 39.9375 0  L 39.9375 31.546875  Q 39.9375 36.921875 38.90625 39.578125  Q 37.890625 42.234375 35.28125 43.8125  Q 32.671875 45.40625 29.15625 45.40625  Q 23.53125 45.40625 19.453125 41.84375  Q 15.375 38.28125 15.375 28.328125  L 15.375 0  z " id="ArialMT-110" />
      <path d="M 52.828125 42.09375  L 5.5625 42.09375  L 5.5625 50.296875  L 52.828125 50.296875  z M 52.828125 20.359375  L 5.5625 20.359375  L 5.5625 28.5625  L 52.828125 28.5625  z " id="ArialMT-61" />
      <path d="M 32.328125 0  L 32.328125 17.140625  L 1.265625 17.140625  L 1.265625 25.203125  L 33.9375 71.578125  L 41.109375 71.578125  L 41.109375 25.203125  L 50.78125 25.203125  L 50.78125 17.140625  L 41.109375 17.140625  L 41.109375 0  z M 32.328125 25.203125  L 32.328125 57.46875  L 9.90625 25.203125  z " id="ArialMT-52" />
      <path d="M 5.46875 16.546875  L 13.921875 17.328125  Q 14.984375 11.375 18.015625 8.6875  Q 21.046875 6 25.78125 6  Q 29.828125 6 32.875 7.859375  Q 35.9375 9.71875 37.890625 12.8125  Q 39.84375 15.921875 41.15625 21.1875  Q 42.484375 26.46875 42.484375 31.9375  Q 42.484375 32.515625 42.4375 33.6875  Q 39.796875 29.5 35.234375 26.875  Q 30.671875 24.265625 25.34375 24.265625  Q 16.453125 24.265625 10.296875 30.703125  Q 4.15625 37.15625 4.15625 47.703125  Q 4.15625 58.59375 10.578125 65.234375  Q 17 71.875 26.65625 71.875  Q 33.640625 71.875 39.421875 68.109375  Q 45.21875 64.359375 48.21875 57.390625  Q 51.21875 50.4375 51.21875 37.25  Q 51.21875 23.53125 48.234375 15.40625  Q 45.265625 7.28125 39.375 3.03125  Q 33.5 -1.21875 25.59375 -1.21875  Q 17.1875 -1.21875 11.859375 3.4375  Q 6.546875 8.109375 5.46875 16.546875  z M 41.453125 48.140625  Q 41.453125 55.71875 37.421875 60.15625  Q 33.40625 64.59375 27.734375 64.59375  Q 21.875 64.59375 17.53125 59.8125  Q 13.1875 55.03125 13.1875 47.40625  Q 13.1875 40.578125 17.3125 36.296875  Q 21.4375 32.03125 27.484375 32.03125  Q 33.59375 32.03125 37.515625 36.296875  Q 41.453125 40.578125 41.453125 48.140625  z " id="ArialMT-57" />
      <path d="M 4.734375 62.203125  L 4.734375 70.65625  L 51.078125 70.65625  L 51.078125 63.8125  Q 44.234375 56.546875 37.515625 44.484375  Q 30.8125 32.421875 27.15625 19.671875  Q 24.515625 10.6875 23.78125 0  L 14.75 0  Q 14.890625 8.453125 18.0625 20.40625  Q 21.234375 32.375 27.171875 43.484375  Q 33.109375 54.59375 39.796875 62.203125  z " id="ArialMT-55" />
     </defs>
     <use xlink:href="#ArialMT-110" />
     <use x="55.615234" xlink:href="#ArialMT-61" />
     <use x="114.013672" xlink:href="#ArialMT-52" />
     <use x="169.628906" xlink:href="#ArialMT-57" />
     <use x="225.244141" xlink:href="#ArialMT-55" />
    </g>
    
    <g style="fill:#444443;" transform="translate(36.757567 97.622013)scale(0.09 -0.09)">
     <defs>
      <path d="M 4.203125 18.890625  L 12.984375 20.0625  Q 14.5 12.59375 18.140625 9.296875  Q 21.78125 6 27 6  Q 33.203125 6 37.46875 10.296875  Q 41.75 14.59375 41.75 20.953125  Q 41.75 27 37.796875 30.921875  Q 33.84375 34.859375 27.734375 34.859375  Q 25.25 34.859375 21.53125 33.890625  L 22.515625 41.609375  Q 23.390625 41.5 23.921875 41.5  Q 29.546875 41.5 34.03125 44.421875  Q 38.53125 47.359375 38.53125 53.46875  Q 38.53125 58.296875 35.25 61.46875  Q 31.984375 64.65625 26.8125 64.65625  Q 21.6875 64.65625 18.265625 61.421875  Q 14.84375 58.203125 13.875 51.765625  L 5.078125 53.328125  Q 6.6875 62.15625 12.390625 67.015625  Q 18.109375 71.875 26.609375 71.875  Q 32.46875 71.875 37.390625 69.359375  Q 42.328125 66.84375 44.9375 62.5  Q 47.5625 58.15625 47.5625 53.265625  Q 47.5625 48.640625 45.0625 44.828125  Q 42.578125 41.015625 37.703125 38.765625  Q 44.046875 37.3125 47.5625 32.6875  Q 51.078125 28.078125 51.078125 21.140625  Q 51.078125 11.765625 44.234375 5.25  Q 37.40625 -1.265625 26.953125 -1.265625  Q 17.53125 -1.265625 11.296875 4.34375  Q 5.078125 9.96875 4.203125 18.890625  z " id="ArialMT-51" />
     </defs>
     <use xlink:href="#ArialMT-51" />
    </g>
   </g>
  </g>
 </g>
</svg></g>

<g id="edge1" class="edge">
<title>node0-&gt;leaf1</title>
<path fill="none" stroke="#444443" stroke-width="0.3" d="M71.46,-145.47C67.46,-134.61 58.23,-109.58 49.88,-86.92" />
<polygon fill="#444443" stroke="#444443" stroke-width="0.3" points="51.13,-86.28 48.44,-83.01 48.51,-87.25 51.13,-86.28" />
<text text-anchor="start" x="56.5" y="-94.8" font-family="Times New Roman,serif" font-size="14.00">&#8804;</text>
</g>

<g id="node3" class="node">
<title>leaf2</title>
<polygon fill="none" stroke="#444443" stroke-width="0" points="148,-83 81,-83 81,0 148,0 148,-83" />
<svg height="75px" version="1.1" viewBox="0 0 78.519993 99.410769" width="59px" preserveAspectRatio="xMinYMin meet" x="85.5" y="-78.5">
 <metadata>
  <rdf:RDF>
   <ns2:Work>
    <dc:type rdf:resource="http://purl.org/dc/dcmitype/StillImage" />
    <dc:date>2021-08-23T14:07:45.480827</dc:date>
    <dc:format>image/svg+xml</dc:format>
    <dc:creator>
     <ns2:Agent>
      <dc:title>Matplotlib v3.3.2, https://matplotlib.org/</dc:title>
     </ns2:Agent>
    </dc:creator>
   </ns2:Work>
  </rdf:RDF>
 </metadata>
 <defs>
  <style type="text/css">*{stroke-linecap:butt;stroke-linejoin:round;}</style>
 </defs>
 <g id="figure_1">
  <g id="patch_1">
   <path d="M 0 99.410769  L 78.519993 99.410769  L 78.519993 0  L 0 0  z " style="fill:#ffffff;" />
  </g>
  <g id="axes_1">
   <g id="patch_2">
    <path d="M 78.519993 39.26  C 78.519993 39.004638 78.517502 38.749282 78.512519 38.493968  C 78.507536 38.238655 78.500063 37.983396 78.4901 37.728228  L 39.259993 39.26  L 78.519993 39.26  z " style="fill:#440154;stroke:#444443;stroke-linejoin:miter;stroke-width:0.5;" />
   </g>
   <g id="patch_3">
    <path d="M 78.4901 37.728228  C 78.486779 37.643173 78.483181 37.558129 78.479307 37.473097  C 78.475433 37.388065 78.471282 37.303046 78.466855 37.218041  L 39.259993 39.26  L 78.4901 37.728228  z " style="fill:#21918c;stroke:#444443;stroke-linejoin:miter;stroke-width:0.5;" />
   </g>
   <g id="patch_4">
    <path d="M 78.466855 37.218041  C 78.466855 37.218041 78.466855 37.218041 78.466855 37.218041  L 39.259993 39.26  L 78.466855 37.218041  z " style="fill:#fde725;stroke:#444443;stroke-linejoin:miter;stroke-width:0.5;" />
   </g>
   <g id="patch_5">
    <path d="M 78.466855 37.218041  C 78.316177 34.324935 77.845734 31.457376 77.064126 28.667779  C 76.282517 25.878181 75.194535 23.183648 73.820065 20.633433  L 39.259993 39.26  L 78.466855 37.218041  z " style="fill:#5ec962;stroke:#444443;stroke-linejoin:miter;stroke-width:0.5;" />
   </g>
   <g id="patch_6">
    <path d="M 73.820065 20.633433  C 71.567571 16.454115 68.575543 12.717834 64.989557 9.606381  C 61.403572 6.494928 57.282747 4.059597 52.827584 2.418881  C 48.37242 0.778164 43.656365 -0.04089 38.908878 0.00157  C 34.161392 0.04403 29.46074 0.947304 25.035635 2.667443  C 20.61053 4.387582 16.533923 6.896227 13.004162 10.071321  C 9.474402 13.246415 6.549678 17.035614 4.372296 21.254551  C 2.194913 25.473489 0.800767 30.052614 0.25769 34.769128  C -0.285387 39.485641 0.031557 44.261788 1.193104 48.865182  C 2.35465 53.468577 4.341648 57.823329 7.05742 61.717558  C 9.773192 65.611786 13.172967 68.98129 17.091327 71.662127  C 21.009687 74.342964 25.382035 76.290937 29.995634 77.411268  C 34.609232 78.531599 39.388022 78.805817 44.09949 78.220581  C 48.810958 77.635345 53.377432 76.200302 57.576728 73.985276  C 61.776025 71.77025 65.538915 68.811756 68.682315 65.253741  C 71.825715 61.695726 74.297802 57.596847 75.978298 53.156535  C 77.658793 48.716224 78.519992 44.007682 78.519993 39.260006  L 39.259993 39.26  L 73.820065 20.633433  z " style="fill:#ffbaab;stroke:#444443;stroke-linejoin:miter;stroke-width:0.5;" />
   </g>
   <g id="text_1">
    
    <g style="fill:#444443;" transform="translate(26.622024 88.102831)scale(0.09 -0.09)">
     <defs>
      <path d="M 6.59375 0  L 6.59375 51.859375  L 14.5 51.859375  L 14.5 44.484375  Q 20.21875 53.03125 31 53.03125  Q 35.6875 53.03125 39.625 51.34375  Q 43.5625 49.65625 45.515625 46.921875  Q 47.46875 44.1875 48.25 40.4375  Q 48.734375 37.984375 48.734375 31.890625  L 48.734375 0  L 39.9375 0  L 39.9375 31.546875  Q 39.9375 36.921875 38.90625 39.578125  Q 37.890625 42.234375 35.28125 43.8125  Q 32.671875 45.40625 29.15625 45.40625  Q 23.53125 45.40625 19.453125 41.84375  Q 15.375 38.28125 15.375 28.328125  L 15.375 0  z " id="ArialMT-110" />
      <path d="M 52.828125 42.09375  L 5.5625 42.09375  L 5.5625 50.296875  L 52.828125 50.296875  z M 52.828125 20.359375  L 5.5625 20.359375  L 5.5625 28.5625  L 52.828125 28.5625  z " id="ArialMT-61" />
      <path d="M 32.328125 0  L 32.328125 17.140625  L 1.265625 17.140625  L 1.265625 25.203125  L 33.9375 71.578125  L 41.109375 71.578125  L 41.109375 25.203125  L 50.78125 25.203125  L 50.78125 17.140625  L 41.109375 17.140625  L 41.109375 0  z M 32.328125 25.203125  L 32.328125 57.46875  L 9.90625 25.203125  z " id="ArialMT-52" />
      <path d="M 17.671875 38.8125  Q 12.203125 40.828125 9.5625 44.53125  Q 6.9375 48.25 6.9375 53.421875  Q 6.9375 61.234375 12.546875 66.546875  Q 18.171875 71.875 27.484375 71.875  Q 36.859375 71.875 42.578125 66.421875  Q 48.296875 60.984375 48.296875 53.171875  Q 48.296875 48.1875 45.671875 44.5  Q 43.0625 40.828125 37.75 38.8125  Q 44.34375 36.671875 47.78125 31.875  Q 51.21875 27.09375 51.21875 20.453125  Q 51.21875 11.28125 44.71875 5.03125  Q 38.234375 -1.21875 27.640625 -1.21875  Q 17.046875 -1.21875 10.546875 5.046875  Q 4.046875 11.328125 4.046875 20.703125  Q 4.046875 27.6875 7.59375 32.390625  Q 11.140625 37.109375 17.671875 38.8125  z M 15.921875 53.71875  Q 15.921875 48.640625 19.1875 45.40625  Q 22.46875 42.1875 27.6875 42.1875  Q 32.765625 42.1875 36.015625 45.375  Q 39.265625 48.578125 39.265625 53.21875  Q 39.265625 58.0625 35.90625 61.359375  Q 32.5625 64.65625 27.59375 64.65625  Q 22.5625 64.65625 19.234375 61.421875  Q 15.921875 58.203125 15.921875 53.71875  z M 13.09375 20.65625  Q 13.09375 16.890625 14.875 13.375  Q 16.65625 9.859375 20.171875 7.921875  Q 23.6875 6 27.734375 6  Q 34.03125 6 38.125 10.046875  Q 42.234375 14.109375 42.234375 20.359375  Q 42.234375 26.703125 38.015625 30.859375  Q 33.796875 35.015625 27.4375 35.015625  Q 21.234375 35.015625 17.15625 30.90625  Q 13.09375 26.8125 13.09375 20.65625  z " id="ArialMT-56" />
      <path d="M 4.203125 18.890625  L 12.984375 20.0625  Q 14.5 12.59375 18.140625 9.296875  Q 21.78125 6 27 6  Q 33.203125 6 37.46875 10.296875  Q 41.75 14.59375 41.75 20.953125  Q 41.75 27 37.796875 30.921875  Q 33.84375 34.859375 27.734375 34.859375  Q 25.25 34.859375 21.53125 33.890625  L 22.515625 41.609375  Q 23.390625 41.5 23.921875 41.5  Q 29.546875 41.5 34.03125 44.421875  Q 38.53125 47.359375 38.53125 53.46875  Q 38.53125 58.296875 35.25 61.46875  Q 31.984375 64.65625 26.8125 64.65625  Q 21.6875 64.65625 18.265625 61.421875  Q 14.84375 58.203125 13.875 51.765625  L 5.078125 53.328125  Q 6.6875 62.15625 12.390625 67.015625  Q 18.109375 71.875 26.609375 71.875  Q 32.46875 71.875 37.390625 69.359375  Q 42.328125 66.84375 44.9375 62.5  Q 47.5625 58.15625 47.5625 53.265625  Q 47.5625 48.640625 45.0625 44.828125  Q 42.578125 41.015625 37.703125 38.765625  Q 44.046875 37.3125 47.5625 32.6875  Q 51.078125 28.078125 51.078125 21.140625  Q 51.078125 11.765625 44.234375 5.25  Q 37.40625 -1.265625 26.953125 -1.265625  Q 17.53125 -1.265625 11.296875 4.34375  Q 5.078125 9.96875 4.203125 18.890625  z " id="ArialMT-51" />
     </defs>
     <use xlink:href="#ArialMT-110" />
     <use x="55.615234" xlink:href="#ArialMT-61" />
     <use x="114.013672" xlink:href="#ArialMT-52" />
     <use x="169.628906" xlink:href="#ArialMT-56" />
     <use x="225.244141" xlink:href="#ArialMT-51" />
    </g>
    
    <g style="fill:#444443;" transform="translate(36.757571 97.622019)scale(0.09 -0.09)">
     <use xlink:href="#ArialMT-52" />
    </g>
   </g>
  </g>
 </g>
</svg></g>

<g id="edge2" class="edge">
<title>node0-&gt;leaf2</title>
<path fill="none" stroke="#444443" stroke-width="0.3" d="M75.59,-145.47C79.69,-134.61 89.15,-109.58 97.71,-86.92" />
<polygon fill="#444443" stroke="#444443" stroke-width="0.3" points="99.09,-87.25 99.19,-83.01 96.47,-86.26 99.09,-87.25" />
<text text-anchor="start" x="95.5" y="-94.8" font-family="Times New Roman,serif" font-size="14.00">&gt;</text>
</g>


<g id="node4" class="node">
<title>legend</title>
<polygon fill="none" stroke="black" stroke-width="0" points="166.5,-190 120.5,-190 120.5,-114 166.5,-114 166.5,-190" />
<svg height="72px" version="1.1" viewBox="0 0 55.8 95.895313" width="42px" preserveAspectRatio="xMinYMin meet" x="122.5" y="-188">
 <metadata>
  <rdf:RDF>
   <ns2:Work>
    <dc:type rdf:resource="http://purl.org/dc/dcmitype/StillImage" />
    <dc:date>2021-08-23T14:07:45.342827</dc:date>
    <dc:format>image/svg+xml</dc:format>
    <dc:creator>
     <ns2:Agent>
      <dc:title>Matplotlib v3.3.2, https://matplotlib.org/</dc:title>
     </ns2:Agent>
    </dc:creator>
   </ns2:Work>
  </rdf:RDF>
 </metadata>
 <defs>
  <style type="text/css">*{stroke-linecap:butt;stroke-linejoin:round;}</style>
 </defs>
 <g id="figure_1">
  <g id="patch_1">
   <path d="M 0 95.895313  L 55.8 95.895313  L 55.8 0  L 0 0  z " style="fill:#ffffff;" />
  </g>
  <g id="axes_1">
   <g id="legend_1">
    <g id="patch_2">
     <path d="M 4.1 95.895313  L 51.7 95.895313  Q 54.1 95.895313 54.1 93.495312  L 54.1 2.4  Q 54.1 0 51.7 0  L 4.1 0  Q 1.7 0 1.7 2.4  L 1.7 93.495312  Q 1.7 95.895313 4.1 95.895313  z " style="fill:#e5e5e5;opacity:0.8;stroke:#444443;stroke-linejoin:miter;stroke-width:0.5;" />
    </g>
    <g id="patch_3">
     <path d="M 11.3 18  L 35.3 18  L 35.3 9.6  L 11.3 9.6  z " style="fill:#440154;stroke:#444443;stroke-linejoin:miter;stroke-width:0.4;" />
    </g>
    <g id="text_1">
     
     <g style="fill:#444443;" transform="translate(39.5 18)scale(0.1 -0.1)">
      <defs>
       <path d="M 3.609375 32.71875  Q 3.609375 44.046875 7.03125 52.21875  Q 10.453125 60.40625 16.109375 64.40625  Q 20.515625 67.578125 25.203125 67.578125  Q 32.8125 67.578125 38.875 59.8125  Q 46.4375 50.203125 46.4375 33.734375  Q 46.4375 22.21875 43.109375 14.15625  Q 39.796875 6.109375 34.640625 2.46875  Q 29.5 -1.171875 24.703125 -1.171875  Q 15.234375 -1.171875 8.9375 10.015625  Q 3.609375 19.4375 3.609375 32.71875  z M 13.1875 31.5  Q 13.1875 17.828125 16.546875 9.1875  Q 19.34375 1.90625 24.859375 1.90625  Q 27.484375 1.90625 30.3125 4.265625  Q 33.15625 6.640625 34.625 12.203125  Q 36.859375 20.609375 36.859375 35.890625  Q 36.859375 47.21875 34.515625 54.78125  Q 32.765625 60.40625 29.984375 62.75  Q 27.984375 64.359375 25.140625 64.359375  Q 21.828125 64.359375 19.234375 61.375  Q 15.71875 57.328125 14.453125 48.625  Q 13.1875 39.9375 13.1875 31.5  z " id="TimesNewRomanPSMT-48" />
      </defs>
      <use xlink:href="#TimesNewRomanPSMT-48" />
     </g>
    </g>
    <g id="patch_4">
     <path d="M 11.3 34.539063  L 35.3 34.539063  L 35.3 26.139063  L 11.3 26.139063  z " style="fill:#21918c;stroke:#444443;stroke-linejoin:miter;stroke-width:0.4;" />
    </g>
    <g id="text_2">
     
     <g style="fill:#444443;" transform="translate(39.5 34.539063)scale(0.1 -0.1)">
      <defs>
       <path d="M 11.71875 59.71875  L 27.828125 67.578125  L 29.4375 67.578125  L 29.4375 11.671875  Q 29.4375 6.109375 29.90625 4.734375  Q 30.375 3.375 31.828125 2.640625  Q 33.296875 1.90625 37.796875 1.8125  L 37.796875 0  L 12.890625 0  L 12.890625 1.8125  Q 17.578125 1.90625 18.9375 2.609375  Q 20.3125 3.328125 20.84375 4.515625  Q 21.390625 5.71875 21.390625 11.671875  L 21.390625 47.40625  Q 21.390625 54.640625 20.90625 56.6875  Q 20.5625 58.25 19.65625 58.984375  Q 18.75 59.71875 17.484375 59.71875  Q 15.671875 59.71875 12.453125 58.203125  z " id="TimesNewRomanPSMT-49" />
      </defs>
      <use xlink:href="#TimesNewRomanPSMT-49" />
     </g>
    </g>
    <g id="patch_5">
     <path d="M 11.3 51.078125  L 35.3 51.078125  L 35.3 42.678125  L 11.3 42.678125  z " style="fill:#fde725;stroke:#444443;stroke-linejoin:miter;stroke-width:0.4;" />
    </g>
    <g id="text_3">
     
     <g style="fill:#444443;" transform="translate(39.5 51.078125)scale(0.1 -0.1)">
      <defs>
       <path d="M 45.84375 12.75  L 41.21875 0  L 2.15625 0  L 2.15625 1.8125  Q 19.390625 17.53125 26.421875 27.484375  Q 33.453125 37.453125 33.453125 45.703125  Q 33.453125 52 29.59375 56.046875  Q 25.734375 60.109375 20.359375 60.109375  Q 15.484375 60.109375 11.59375 57.25  Q 7.71875 54.390625 5.859375 48.875  L 4.046875 48.875  Q 5.28125 57.90625 10.328125 62.734375  Q 15.375 67.578125 22.953125 67.578125  Q 31 67.578125 36.390625 62.40625  Q 41.796875 57.234375 41.796875 50.203125  Q 41.796875 45.171875 39.453125 40.140625  Q 35.84375 32.234375 27.734375 23.390625  Q 15.578125 10.109375 12.546875 7.375  L 29.828125 7.375  Q 35.109375 7.375 37.234375 7.765625  Q 39.359375 8.15625 41.0625 9.34375  Q 42.78125 10.546875 44.046875 12.75  z " id="TimesNewRomanPSMT-50" />
      </defs>
      <use xlink:href="#TimesNewRomanPSMT-50" />
     </g>
    </g>
    <g id="patch_6">
     <path d="M 11.3 67.617188  L 35.3 67.617188  L 35.3 59.217188  L 11.3 59.217188  z " style="fill:#5ec962;stroke:#444443;stroke-linejoin:miter;stroke-width:0.4;" />
    </g>
    <g id="text_4">
     
     <g style="fill:#444443;" transform="translate(39.5 67.617188)scale(0.1 -0.1)">
      <defs>
       <path d="M 5.078125 53.609375  Q 7.90625 60.296875 12.21875 63.9375  Q 16.546875 67.578125 23 67.578125  Q 30.953125 67.578125 35.203125 62.40625  Q 38.421875 58.546875 38.421875 54.15625  Q 38.421875 46.921875 29.34375 39.203125  Q 35.453125 36.8125 38.578125 32.375  Q 41.703125 27.9375 41.703125 21.921875  Q 41.703125 13.328125 36.234375 7.03125  Q 29.109375 -1.171875 15.578125 -1.171875  Q 8.890625 -1.171875 6.46875 0.484375  Q 4.046875 2.15625 4.046875 4.046875  Q 4.046875 5.46875 5.1875 6.546875  Q 6.34375 7.625 7.953125 7.625  Q 9.1875 7.625 10.453125 7.234375  Q 11.28125 6.984375 14.203125 5.4375  Q 17.140625 3.90625 18.265625 3.609375  Q 20.0625 3.078125 22.125 3.078125  Q 27.09375 3.078125 30.78125 6.9375  Q 34.46875 10.796875 34.46875 16.0625  Q 34.46875 19.921875 32.765625 23.578125  Q 31.5 26.3125 29.984375 27.734375  Q 27.875 29.6875 24.21875 31.265625  Q 20.5625 32.859375 16.75 32.859375  L 15.1875 32.859375  L 15.1875 34.328125  Q 19.046875 34.8125 22.921875 37.109375  Q 26.8125 39.40625 28.5625 42.625  Q 30.328125 45.84375 30.328125 49.703125  Q 30.328125 54.734375 27.171875 57.828125  Q 24.03125 60.9375 19.34375 60.9375  Q 11.765625 60.9375 6.6875 52.828125  z " id="TimesNewRomanPSMT-51" />
      </defs>
      <use xlink:href="#TimesNewRomanPSMT-51" />
     </g>
    </g>
    <g id="patch_7">
     <path d="M 11.3 84.15625  L 35.3 84.15625  L 35.3 75.75625  L 11.3 75.75625  z " style="fill:#ffbaab;stroke:#444443;stroke-linejoin:miter;stroke-width:0.4;" />
    </g>
    <g id="text_5">
     
     <g style="fill:#444443;" transform="translate(39.5 84.15625)scale(0.1 -0.1)">
      <defs>
       <path d="M 46.53125 24.421875  L 46.53125 17.484375  L 37.640625 17.484375  L 37.640625 0  L 29.59375 0  L 29.59375 17.484375  L 1.5625 17.484375  L 1.5625 23.734375  L 32.28125 67.578125  L 37.640625 67.578125  L 37.640625 24.421875  z M 29.59375 24.421875  L 29.59375 57.28125  L 6.34375 24.421875  z " id="TimesNewRomanPSMT-52" />
      </defs>
      <use xlink:href="#TimesNewRomanPSMT-52" />
     </g>
    </g>
   </g>
  </g>
 </g>
</svg></g>
</g>
</svg>